<svg width="34" height="34" viewBox="0 0 34 34" fill="none" xmlns="http://www.w3.org/2000/svg">
<circle cx="17" cy="17" r="16" stroke="#99A8B1" stroke-width="2"/>
<path fill-rule="evenodd" clip-rule="evenodd" d="M12.7574 12.7574C13.0177 12.497 13.4398 12.497 13.7002 12.7574L17 16.0572L20.2998 12.7574C20.5602 12.497 20.9823 12.497 21.2426 12.7574C21.503 13.0177 21.503 13.4398 21.2426 13.7002L17.9428 17L21.2426 20.2998C21.503 20.5602 21.503 20.9823 21.2426 21.2426C20.9823 21.503 20.5602 21.503 20.2998 21.2426L17 17.9428L13.7002 21.2426C13.4398 21.503 13.0177 21.503 12.7574 21.2426C12.497 20.9823 12.497 20.5602 12.7574 20.2998L16.0572 17L12.7574 13.7002C12.497 13.4398 12.497 13.0177 12.7574 12.7574Z" fill="#99A8B1" stroke="#99A8B1" stroke-width="0.5" stroke-linecap="round" stroke-linejoin="round"/>
</svg>
