<svg width="18" height="18" viewBox="0 0 18 18" fill="none" xmlns="http://www.w3.org/2000/svg">
<path d="M8.90012 1.39642C10.9982 1.42736 11.2064 1.90408 11.8209 1.92095C12.7096 1.94627 14.0681 0.237673 15.9089 1.78174C17.7229 3.3033 16.245 5.69111 16.245 5.69111C16.245 5.69111 17.2546 7.47986 17.3728 10.2052C17.4586 12.1781 16.6992 14.6335 13.2946 16.0256C10.1601 17.3081 5.48293 17.0522 2.62402 14.857C0.407771 13.1569 0.563865 10.6763 0.624334 9.83111C0.78324 7.61345 1.75215 5.83174 1.75215 5.83174C1.75215 5.83174 0.319177 2.99814 2.06855 1.65517C3.98949 0.180017 5.35636 1.91674 6.14668 1.85345C6.72183 1.80564 6.91027 1.36689 8.90012 1.39642Z" fill="#855B52"/>
<path d="M5.05967 2.92076C5.03295 2.76467 4.01482 1.75498 2.96154 2.78154C2.15014 3.57326 2.96154 4.94998 3.10076 4.84029C3.20764 4.75592 3.60139 4.24826 4.06123 3.81092C4.53232 3.36232 5.06951 2.98123 5.05967 2.92076Z" fill="#B99277"/>
<path d="M13.0078 2.9306C13.0008 3.01779 13.5436 3.34544 14.0372 3.81091C14.5364 4.282 14.9864 4.8895 15.0666 4.87966C15.2255 4.85997 15.9075 3.52404 15.0173 2.77169C14.1272 2.01935 13.0275 2.67325 13.0078 2.9306Z" fill="#B99277"/>
<path d="M9.07172 8.49097C11.1305 8.49097 12.3652 10.8141 12.292 12.2653C12.2259 13.5858 11.4736 14.6813 8.93953 14.6672C6.40547 14.6546 5.76281 13.4916 5.71922 12.2513C5.67984 11.1432 6.47156 8.49097 9.07172 8.49097Z" fill="#F2A258"/>
<path d="M13.0669 8.3954C13.1133 8.9804 12.7997 9.51337 12.1992 9.46837C11.6199 9.42337 11.1966 8.95368 11.1966 8.36587C11.1966 7.77805 11.5088 7.3618 11.9784 7.29711C12.5522 7.21696 13.0008 7.5643 13.0669 8.3954Z" fill="#171716"/>
<path d="M10.4836 10.8267C10.4358 11.4117 10.0476 12.0375 8.91984 11.9981C7.97343 11.9644 7.52765 11.3344 7.51359 10.748C7.4939 9.91968 7.93546 9.61453 9.00562 9.59906C10.2262 9.58359 10.5497 10.0223 10.4836 10.8267Z" fill="#2F3030"/>
<path d="M6.80204 8.61322C6.74157 9.19681 6.19314 9.60603 5.67985 9.48087C5.11595 9.34306 4.86282 8.74962 4.98095 8.17447C5.08642 7.65978 5.53782 7.259 6.0497 7.31665C6.58407 7.37572 6.87798 7.87775 6.80204 8.61322Z" fill="#171716"/>
<path d="M8.9986 13.365C9.77063 13.365 10.1925 12.9389 10.312 12.8208C10.4316 12.7027 10.5919 12.5002 10.8394 12.7027C11.0503 12.8742 10.8422 13.1414 10.7466 13.2441C10.575 13.4283 10.0575 13.9908 8.92829 13.9402C7.82016 13.891 7.39407 13.3889 7.27454 13.2708C7.15641 13.1527 6.95813 12.8489 7.18172 12.6774C7.45032 12.4721 7.5375 12.7041 7.81454 12.9277C8.09157 13.1513 8.26594 13.365 8.9986 13.365Z" fill="#2F3030"/>
</svg>
