<svg width="24" height="30" viewBox="0 0 24 30" fill="none" xmlns="http://www.w3.org/2000/svg">
<path d="M5.33437 9.54616C5.20078 10.9712 5.10703 13.493 5.94843 14.5665C5.94843 14.5665 5.55234 11.7962 9.10312 8.32038C10.5328 6.92116 10.8633 5.01804 10.3641 3.59069C10.0805 2.7821 9.56249 2.11413 9.11249 1.64772C8.84999 1.37351 9.05156 0.921162 9.43359 0.937568C11.7445 1.04069 15.4898 1.68288 17.0812 5.67663C17.7797 7.42976 17.8312 9.24148 17.4984 11.0837C17.2875 12.2602 16.5375 14.8758 18.2484 15.1969C19.4695 15.4266 20.0601 14.4563 20.325 13.7579C20.4351 13.4673 20.8172 13.3946 21.0234 13.6266C23.0859 15.9727 23.2617 18.736 22.8351 21.1149C22.0102 25.7133 17.3531 29.0602 12.7266 29.0602C6.94687 29.0602 2.34609 25.7532 1.15312 19.7673C0.672651 17.3508 0.916402 12.5696 4.64296 9.1946C4.91953 8.94147 5.37187 9.16647 5.33437 9.54616Z" fill="url(#paint0_radial)"/>
<path d="M14.8383 18.1452C12.7079 15.403 13.6618 12.2741 14.1844 11.0272C14.2547 10.8632 14.0672 10.7085 13.9196 10.8093C13.0032 11.4327 11.1258 12.8999 10.2516 14.9647C9.06801 17.7561 9.15238 19.1225 9.85316 20.7913C10.275 21.7968 9.7852 22.01 9.5391 22.0475C9.30004 22.085 9.07973 21.9257 8.90395 21.7593C8.40004 21.2788 8.03676 20.653 7.86332 19.978C7.82582 19.8327 7.63598 19.7929 7.54926 19.9124C6.89301 20.8194 6.55316 22.2749 6.53676 23.3038C6.48519 26.4843 9.11254 29.0624 12.2907 29.0624C16.2961 29.0624 19.2141 24.6327 16.9125 20.9296C16.2446 19.8515 15.6164 19.146 14.8383 18.1452Z" fill="url(#paint1_radial)"/>
<defs>
<radialGradient id="paint0_radial" cx="0" cy="0" r="1" gradientUnits="userSpaceOnUse" gradientTransform="translate(11.5819 29.1331) rotate(-179.751) scale(16.544 27.1454)">
<stop offset="0.3144" stop-color="#FF9800"/>
<stop offset="0.6616" stop-color="#FF6D00"/>
<stop offset="0.9715" stop-color="#F44336"/>
</radialGradient>
<radialGradient id="paint1_radial" cx="0" cy="0" r="1" gradientUnits="userSpaceOnUse" gradientTransform="translate(12.5109 12.6699) rotate(90.5787) scale(17.3101 13.0271)">
<stop offset="0.2141" stop-color="#FFF176"/>
<stop offset="0.3275" stop-color="#FFF27D"/>
<stop offset="0.4868" stop-color="#FFF48F"/>
<stop offset="0.6722" stop-color="#FFF7AD"/>
<stop offset="0.7931" stop-color="#FFF9C4"/>
<stop offset="0.8221" stop-color="#FFF8BD" stop-opacity="0.804"/>
<stop offset="0.8627" stop-color="#FFF6AB" stop-opacity="0.529"/>
<stop offset="0.9101" stop-color="#FFF38D" stop-opacity="0.2088"/>
<stop offset="0.9409" stop-color="#FFF176" stop-opacity="0"/>
</radialGradient>
</defs>
</svg>
