<svg width="62" height="107" viewBox="0 0 62 107" fill="none" xmlns="http://www.w3.org/2000/svg">
<path d="M57.4452 0.699473C54.5786 3.05778 51.9004 5.52464 49.2615 8.14C46.84 10.379 43.825 12.7771 42.0475 15.6387C41.0302 17.1835 43.0413 19.348 44.6628 18.2774C44.6628 18.2774 44.8111 18.2377 44.7714 18.0893C45.296 18.2668 45.6725 18.4839 46.2366 18.8098C46.2764 18.9582 46.504 19.2152 46.5438 19.3636C46.7716 19.6206 47.1479 19.8378 47.5244 20.055C45.3685 29.2198 43.5093 38.3051 40.4525 47.0753C39.5651 49.6984 38.4894 52.2129 37.0776 54.6585C30.3023 48.3638 20.2413 41.6774 11.3313 45.8141C-0.387019 51.3393 9.82777 62.7549 17.4004 65.4967C26.4382 68.9588 32.8869 66.9129 38.0237 59.9707C42.3428 64.2201 45.9308 69.3013 47.1049 74.8708C50.198 88.1949 38.9247 93.6006 28.0696 92.8517C28.5196 88.5966 27.7722 84.0265 25.8482 80.4072C22.496 73.8314 10.1437 70.4623 5.22413 77.0282C0.452905 83.5543 15.2168 92.9562 19.6019 94.4848C20.8393 94.9484 22.225 95.3719 23.571 95.6473C23.4623 95.8355 23.5022 95.9841 23.3935 96.172C19.4309 108.683 7.9155 101.909 1.73363 95.4558C0.822112 94.4279 -0.531665 95.9038 0.231486 96.9715C5.75102 103.921 15.1892 111.251 23.1053 103.405C24.973 101.473 26.385 99.0279 27.0843 96.2962C36.1192 97.3737 45.6151 94.8293 49.5619 85.8207C54.2983 75.0103 46.7465 64.6301 39.6929 57.2969C39.8012 57.1088 39.8012 57.1088 39.9101 56.9207C46.1806 46.4943 48.2726 33.5301 50.8311 21.7131C52.0684 22.1766 53.4544 22.6003 54.6915 23.064C55.5529 23.3102 56.5517 22.8836 56.9859 22.1311C59.9369 15.9337 61.5711 8.97594 60.8207 2.02104C60.8286 0.269959 58.8787 -0.479747 57.4452 0.699473ZM32.3064 61.1844C27.5429 65.9592 20.8315 63.4639 15.6435 60.7195C8.80217 57.1459 8.09932 48.5881 16.9938 47.9543C21.535 47.6916 25.9811 50.6348 29.635 52.9952C31.556 54.2297 33.5567 55.7607 35.4486 57.48C34.54 58.8369 33.443 60.085 32.3064 61.1844ZM24.4081 92.2426C19.8457 91.2391 16.0831 89.0665 12.7154 85.9937C11.2395 84.6399 9.8722 83.098 8.91027 81.2885C6.07489 76.6415 14.7627 77.0169 17.1181 77.499C23.591 79.104 25.0542 86.345 24.4081 92.2426ZM54.1719 18.7509C54.0235 18.7906 53.9838 18.6422 53.8354 18.682C53.7161 18.2369 53.2999 17.8714 52.6272 17.7336C51.4693 17.5668 50.2717 17.2516 49.0738 16.9364C48.5492 16.759 47.4205 16.1073 47.5 16.404C47.4602 16.2557 47.2721 16.147 47.1237 16.1868C48.517 14.8593 49.8313 13.235 51.2246 11.9076C52.9837 10.164 54.8912 8.38075 56.7989 6.5974C56.7547 10.5848 55.8198 14.8108 54.1719 18.7509Z" fill="#69C262"/>
</svg>
