<svg width="30" height="30" viewBox="0 0 30 30" fill="none" xmlns="http://www.w3.org/2000/svg">
<circle cx="15" cy="15" r="15" fill="#69C262"/>
<path fill-rule="evenodd" clip-rule="evenodd" d="M20.25 14.25H9.75V11.25C9.75 10.8368 10.0868 10.5 10.5 10.5H11.25V11.25C11.25 11.6625 11.5875 12 12 12C12.4125 12 12.75 11.6625 12.75 11.25V10.5H17.25V11.25C17.25 11.6625 17.5875 12 18 12C18.4125 12 18.75 11.6625 18.75 11.25V10.5H19.5C19.9132 10.5 20.25 10.8368 20.25 11.25V14.25ZM18 18.75H15C14.5875 18.75 14.25 18.4125 14.25 18C14.25 17.5875 14.5875 17.25 15 17.25H18C18.4125 17.25 18.75 17.5875 18.75 18C18.75 18.4125 18.4125 18.75 18 18.75ZM12 18.75C11.5875 18.75 11.25 18.4125 11.25 18C11.25 17.5875 11.5875 17.25 12 17.25C12.4125 17.25 12.75 17.5875 12.75 18C12.75 18.4125 12.4125 18.75 12 18.75ZM19.5 9H18.75V8.25C18.75 7.8375 18.4125 7.5 18 7.5C17.5875 7.5 17.25 7.8375 17.25 8.25V9H12.75V8.25C12.75 7.8375 12.4125 7.5 12 7.5C11.5875 7.5 11.25 7.8375 11.25 8.25V9H10.5C9.2595 9 8.25 10.0095 8.25 11.25V20.25C8.25 21.4905 9.2595 22.5 10.5 22.5H19.5C20.7405 22.5 21.75 21.4905 21.75 20.25V11.25C21.75 10.0095 20.7405 9 19.5 9Z" fill="white"/>
</svg>