<svg width="20" height="20" viewBox="0 0 20 20" fill="none" xmlns="http://www.w3.org/2000/svg">
<rect width="20" height="20" rx="6" fill="#69C262"/>
<path fill-rule="evenodd" clip-rule="evenodd" d="M12.9167 9.58333H7.08333V7.91666C7.08333 7.68708 7.27042 7.49999 7.5 7.49999H7.91667V7.91666C7.91667 8.14583 8.10417 8.33333 8.33333 8.33333C8.5625 8.33333 8.75 8.14583 8.75 7.91666V7.49999H11.25V7.91666C11.25 8.14583 11.4375 8.33333 11.6667 8.33333C11.8958 8.33333 12.0833 8.14583 12.0833 7.91666V7.49999H12.5C12.7296 7.49999 12.9167 7.68708 12.9167 7.91666V9.58333ZM11.6667 12.0833H10C9.77083 12.0833 9.58333 11.8958 9.58333 11.6667C9.58333 11.4375 9.77083 11.25 10 11.25H11.6667C11.8958 11.25 12.0833 11.4375 12.0833 11.6667C12.0833 11.8958 11.8958 12.0833 11.6667 12.0833V12.0833ZM8.33333 12.0833C8.10417 12.0833 7.91667 11.8958 7.91667 11.6667C7.91667 11.4375 8.10417 11.25 8.33333 11.25C8.5625 11.25 8.75 11.4375 8.75 11.6667C8.75 11.8958 8.5625 12.0833 8.33333 12.0833V12.0833ZM12.5 6.66666H12.0833V6.24999C12.0833 6.02083 11.8958 5.83333 11.6667 5.83333C11.4375 5.83333 11.25 6.02083 11.25 6.24999V6.66666H8.75V6.24999C8.75 6.02083 8.5625 5.83333 8.33333 5.83333C8.10417 5.83333 7.91667 6.02083 7.91667 6.24999V6.66666H7.5C6.81083 6.66666 6.25 7.22749 6.25 7.91666V12.9167C6.25 13.6058 6.81083 14.1667 7.5 14.1667H12.5C13.1892 14.1667 13.75 13.6058 13.75 12.9167V7.91666C13.75 7.22749 13.1892 6.66666 12.5 6.66666V6.66666Z" fill="white"/>
</svg>
