<svg width="20" height="20" viewBox="0 0 20 20" fill="none" xmlns="http://www.w3.org/2000/svg">
<path fill-rule="evenodd" clip-rule="evenodd" d="M13 10.75H10C9.586 10.75 9.25 10.4148 9.25 10V7C9.25 6.58525 9.586 6.25 10 6.25C10.414 6.25 10.75 6.58525 10.75 7V9.25H13C13.4148 9.25 13.75 9.58525 13.75 10C13.75 10.4148 13.4148 10.75 13 10.75ZM10 2.5C5.8645 2.5 2.5 5.8645 2.5 10C2.5 14.1355 5.8645 17.5 10 17.5C14.1355 17.5 17.5 14.1355 17.5 10C17.5 5.8645 14.1355 2.5 10 2.5Z" fill="#99A8B1"/>
</svg>
