<svg width="14" height="14" viewBox="0 0 12 12" fill="none" xmlns="http://www.w3.org/2000/svg">
<path fill-rule="evenodd" clip-rule="evenodd" d="M0.696698 0.696733C0.371261 1.02217 0.371261 1.54981 0.696698 1.87524L4.82149 6.00003L0.696698 10.1248C0.371261 10.4503 0.371261 10.9779 0.696698 11.3033C1.02213 11.6288 1.54977 11.6288 1.87521 11.3033L6 7.17855L10.1248 11.3033C10.4502 11.6288 10.9779 11.6288 11.3033 11.3033C11.6287 10.9779 11.6287 10.4503 11.3033 10.1248L7.17851 6.00003L11.3033 1.87525C11.6287 1.54981 11.6287 1.02217 11.3033 0.696734C10.9779 0.371297 10.4502 0.371297 10.1248 0.696734L6 4.82152L1.87521 0.696733C1.54977 0.371296 1.02214 0.371296 0.696698 0.696733Z" fill="#99A8B1" stroke="#99A8B1" stroke-width="0.5" stroke-linecap="round" stroke-linejoin="round"/>
</svg>
