<svg width="28" height="28" viewBox="0 0 28 28" fill="none" xmlns="http://www.w3.org/2000/svg">
<g opacity="0.5">
<path d="M21 9.33331H22.1667C23.4043 9.33331 24.5913 9.82498 25.4665 10.7001C26.3417 11.5753 26.8333 12.7623 26.8333 14C26.8333 15.2377 26.3417 16.4246 25.4665 17.2998C24.5913 18.175 23.4043 18.6666 22.1667 18.6666H21" stroke="#99A8B1" stroke-width="2" stroke-linecap="round" stroke-linejoin="round"/>
<path d="M2.33337 9.33331H21V19.8333C21 21.071 20.5084 22.258 19.6332 23.1331C18.758 24.0083 17.5711 24.5 16.3334 24.5H7.00004C5.76236 24.5 4.57538 24.0083 3.70021 23.1331C2.82504 22.258 2.33337 21.071 2.33337 19.8333V9.33331Z" stroke="#99A8B1" stroke-width="2" stroke-linecap="round" stroke-linejoin="round"/>
<path d="M7 1.16669V4.66669" stroke="#99A8B1" stroke-width="2" stroke-linecap="round" stroke-linejoin="round"/>
<path d="M11.6666 1.16669V4.66669" stroke="#99A8B1" stroke-width="2" stroke-linecap="round" stroke-linejoin="round"/>
<path d="M16.3334 1.16669V4.66669" stroke="#99A8B1" stroke-width="2" stroke-linecap="round" stroke-linejoin="round"/>
</g>
</svg>