<svg width="48" height="48" viewBox="0 0 48 48" fill="none" xmlns="http://www.w3.org/2000/svg">
<rect width="48" height="48" rx="24" fill="#F55D2C" fill-opacity="0.8"/>
<path d="M16.3215 32.2327C16.7554 32.6624 17.3414 32.9034 17.952 32.9034C18.5626 32.9034 19.1486 32.6624 19.5825 32.2327L20.0415 31.773C20.451 31.9808 20.8717 32.1577 21.3082 32.2995V32.9468C21.311 33.5568 21.5545 34.141 21.9859 34.5723C22.4172 35.0037 23.0015 35.2472 23.6115 35.25H24.3862C25.6507 35.25 26.6947 34.2113 26.6947 32.9468V32.2935C27.1288 32.1536 27.5511 31.9795 27.9577 31.773L28.4167 32.2327C28.8507 32.6624 29.4366 32.9034 30.0472 32.9034C30.6579 32.9034 31.2438 32.6624 31.6777 32.2327L32.2312 31.6823C32.6608 31.2477 32.9018 30.6613 32.9018 30.0502C32.9018 29.4392 32.6608 28.8528 32.2312 28.4183L31.7722 27.9645C31.98 27.555 32.157 27.1335 32.298 26.697H32.9452C34.2105 26.697 35.2485 25.6523 35.2485 24.3878V23.613C35.2485 22.3485 34.209 21.3045 32.9452 21.3045H32.292C32.1521 20.8708 31.9783 20.4487 31.7722 20.0422L32.2312 19.5825C32.6608 19.1486 32.9018 18.5626 32.9018 17.952C32.9018 17.3414 32.6608 16.7554 32.2312 16.3215L31.6777 15.768C31.2438 15.3384 30.6579 15.0974 30.0472 15.0974C29.4366 15.0974 28.8507 15.3384 28.4167 15.768L27.9577 16.227C27.5509 16.021 27.1286 15.847 26.6947 15.7065V15.0585C26.691 14.4474 26.4466 13.8624 26.0145 13.4303C25.5823 12.9982 24.9973 12.7537 24.3862 12.75H23.6115C22.347 12.75 21.3082 13.7948 21.3082 15.0585V15.7005C20.8717 15.8423 20.4495 16.0185 20.0415 16.2263L19.5825 15.7672C19.1486 15.3376 18.5626 15.0966 17.952 15.0966C17.3414 15.0966 16.7554 15.3376 16.3215 15.7672L15.7725 16.3215C15.3436 16.7558 15.1031 17.3416 15.1031 17.952C15.1031 18.5624 15.3436 19.1482 15.7725 19.5825L16.2262 20.0422C16.0205 20.4489 15.8467 20.8709 15.7065 21.3045H15.0585C14.4474 21.308 13.8624 21.5524 13.4303 21.9846C12.9983 22.4168 12.7541 23.0019 12.7507 23.613V24.3878C12.7543 24.9988 12.9985 25.5839 13.4305 26.0162C13.8625 26.4485 14.4474 26.6931 15.0585 26.697H15.7065C15.8482 27.1328 16.0185 27.5565 16.2262 27.9645L15.7725 28.4183C15.3432 28.853 15.1025 29.4393 15.1025 30.0502C15.1025 30.6612 15.3432 31.2475 15.7725 31.6823L16.3215 32.2327ZM23.6115 14.2515H24.3862C24.8452 14.2515 25.1947 14.6003 25.1947 15.06V16.2007C25.1954 16.3679 25.2518 16.53 25.3551 16.6614C25.4583 16.7928 25.6025 16.8859 25.7647 16.926C26.4664 17.1007 27.1383 17.3787 27.7582 17.751C27.9012 17.8366 28.0686 17.8722 28.234 17.8521C28.3994 17.832 28.5534 17.7574 28.6717 17.64L29.4802 16.8315C29.554 16.7545 29.6425 16.6933 29.7405 16.6514C29.8385 16.6096 29.944 16.588 30.0506 16.588C30.1572 16.588 30.2627 16.6096 30.3607 16.6514C30.4587 16.6933 30.5473 16.7545 30.621 16.8315L31.1685 17.385C31.4932 17.7097 31.4932 18.195 31.1685 18.5197L30.366 19.3282C30.2464 19.4463 30.17 19.6012 30.149 19.768C30.1281 19.9348 30.1638 20.1037 30.2505 20.2477C30.6243 20.8674 30.9039 21.5393 31.08 22.2413C31.1647 22.5728 31.4632 22.8053 31.8052 22.806H32.946C33.4042 22.806 33.7485 23.1547 33.7485 23.6145V24.3892C33.7485 24.8482 33.4042 25.1978 32.946 25.1978H31.8052C31.6373 25.1973 31.474 25.2533 31.3416 25.3566C31.2091 25.4599 31.1152 25.6047 31.0747 25.7677C30.9001 26.4694 30.6218 27.141 30.249 27.7605C30.075 28.056 30.1215 28.4325 30.3645 28.674L31.167 29.4825C31.244 29.5562 31.3052 29.6448 31.3471 29.7428C31.3889 29.8408 31.4105 29.9463 31.4105 30.0529C31.4105 30.1595 31.3889 30.2649 31.3471 30.363C31.3052 30.461 31.244 30.5495 31.167 30.6232L30.6195 31.1715C30.5458 31.2485 30.4572 31.3097 30.3592 31.3516C30.2612 31.3934 30.1557 31.415 30.0491 31.415C29.9425 31.415 29.837 31.3934 29.739 31.3516C29.641 31.3097 29.5525 31.2485 29.4787 31.1715L28.6702 30.363C28.5518 30.2458 28.3978 30.1713 28.2324 30.1513C28.067 30.1314 27.8996 30.167 27.7567 30.2528C27.1367 30.6248 26.4649 30.9028 25.7632 31.0778C25.6 31.1181 25.4551 31.2121 25.3517 31.3447C25.2483 31.4774 25.1925 31.6409 25.1932 31.809V32.9498C25.1953 33.0562 25.1758 33.162 25.1358 33.2607C25.0958 33.3594 25.0362 33.4489 24.9606 33.524C24.8851 33.599 24.7951 33.6579 24.6961 33.6971C24.5971 33.7364 24.4912 33.7551 24.3847 33.7523H23.61C23.5035 33.7551 23.3976 33.7364 23.2986 33.6971C23.1996 33.6579 23.1096 33.599 23.0341 33.524C22.9585 33.4489 22.8989 33.3594 22.8589 33.2607C22.819 33.162 22.7994 33.0562 22.8015 32.9498V31.809C22.8025 31.6416 22.7474 31.4786 22.6451 31.3461C22.5427 31.2136 22.399 31.1191 22.2367 31.0778C21.5353 30.903 20.8637 30.625 20.244 30.2528C20.1005 30.1657 19.9319 30.1292 19.7652 30.1492C19.5985 30.1692 19.4434 30.2445 19.3245 30.363L18.522 31.1715C18.4483 31.2485 18.3597 31.3097 18.2617 31.3516C18.1637 31.3934 18.0582 31.415 17.9516 31.415C17.845 31.415 17.7395 31.3934 17.6415 31.3516C17.5435 31.3097 17.455 31.2485 17.3812 31.1715L16.8277 30.6232C16.7508 30.5495 16.6895 30.461 16.6476 30.363C16.6058 30.2649 16.5842 30.1595 16.5842 30.0529C16.5842 29.9463 16.6058 29.8408 16.6476 29.7428C16.6895 29.6448 16.7508 29.5562 16.8277 29.4825L17.6362 28.674C17.7533 28.5555 17.8277 28.4014 17.8475 28.236C17.8673 28.0706 17.8315 27.9033 17.7457 27.7605C17.3742 27.1404 17.0962 26.469 16.9207 25.7677C16.8804 25.6045 16.7863 25.4596 16.6537 25.3562C16.5211 25.2528 16.3576 25.197 16.1895 25.1978H15.0555C14.9488 25.1998 14.8428 25.1803 14.7438 25.1403C14.6448 25.1004 14.5549 25.0409 14.4795 24.9654C14.4041 24.8899 14.3447 24.8 14.3048 24.701C14.265 24.602 14.2456 24.4959 14.2477 24.3892V23.6145C14.2477 23.1555 14.7037 22.9522 15.0555 22.806C15.4072 22.6605 16.1962 22.806 16.1962 22.806C16.539 22.8053 16.8367 22.5728 16.9222 22.2413C17.0971 21.5396 17.3751 20.8678 17.7472 20.2477C17.8341 20.1042 17.8706 19.9358 17.8507 19.7692C17.8309 19.6025 17.7559 19.4474 17.6377 19.3282L16.8285 18.5197C16.7516 18.4466 16.6903 18.3586 16.6485 18.2611C16.6067 18.1635 16.5851 18.0585 16.5851 17.9524C16.5851 17.8462 16.6067 17.7412 16.6485 17.6437C16.6903 17.5462 16.7516 17.4581 16.8285 17.385L17.382 16.8315C17.4552 16.7546 17.5433 16.6933 17.6409 16.6515C17.7385 16.6096 17.8435 16.588 17.9497 16.588C18.0559 16.588 18.161 16.6096 18.2586 16.6515C18.3562 16.6933 18.4443 16.7546 18.5175 16.8315L19.326 17.64C19.4447 17.7588 19.5998 17.8343 19.7666 17.8544C19.9333 17.8745 20.1019 17.8381 20.2455 17.751C20.8653 17.379 21.5369 17.101 22.2382 16.926C22.4004 16.8848 22.5442 16.7905 22.6465 16.6581C22.7489 16.5257 22.8039 16.3628 22.803 16.1955V15.06C22.803 14.6003 23.1525 14.2515 23.6115 14.2515ZM24 19.749C21.6615 19.749 19.7535 21.663 19.7535 24.0007C19.7535 26.3385 21.6615 28.2525 24 28.2525C26.3377 28.2525 28.2517 26.3385 28.2517 24.0007C28.2517 21.663 26.3377 19.749 24 19.749ZM24 21.249C24.3617 21.2477 24.7201 21.318 25.0546 21.4558C25.389 21.5937 25.6929 21.7963 25.9486 22.0521C26.2044 22.3079 26.4071 22.6117 26.5449 22.9462C26.6827 23.2806 26.753 23.639 26.7517 24.0007C26.753 24.3625 26.6827 24.7209 26.5449 25.0553C26.4071 25.3898 26.2044 25.6936 25.9486 25.9494C25.6929 26.2052 25.389 26.4078 25.0546 26.5457C24.7201 26.6835 24.3617 26.7538 24 26.7525C23.6386 26.7537 23.2805 26.6833 22.9464 26.5453C22.6124 26.4074 22.3089 26.2047 22.0537 25.9488C21.7984 25.693 21.5963 25.3891 21.4591 25.0548C21.3219 24.7204 21.2522 24.3622 21.2542 24.0007C21.2523 23.6394 21.322 23.2812 21.4593 22.9469C21.5965 22.6125 21.7986 22.3087 22.0539 22.0529C22.3091 21.7971 22.6125 21.5943 22.9465 21.4564C23.2806 21.3184 23.6386 21.2479 24 21.249Z" fill="white"/>
</svg>
