<svg width="24" height="24" viewBox="0 0 24 24" fill="none" xmlns="http://www.w3.org/2000/svg">
<path fill-rule="evenodd" clip-rule="evenodd" d="M10.9999 2.14999C9.42589 2.14999 8.1499 3.42598 8.1499 4.99999V5.14999H4.9999H3.9999C3.53046 5.14999 3.1499 5.53055 3.1499 5.99999C3.1499 6.46944 3.53046 6.84999 3.9999 6.84999H4.9999H5.30538L6.13416 19.1715L6.13428 19.1735C6.22581 20.6219 7.42727 21.75 8.8788 21.75H15.121C16.5725 21.75 17.7739 20.6219 17.8655 19.1736L17.8656 19.1715L18.6944 6.84999H18.9999H19.9999C20.4693 6.84999 20.8499 6.46944 20.8499 5.99999C20.8499 5.53055 20.4693 5.14999 19.9999 5.14999H18.9999H15.8499V4.99999C15.8499 3.42598 14.5739 2.14999 12.9999 2.14999H10.9999ZM14.1499 5.14999H9.8499V4.99999C9.8499 4.36487 10.3648 3.84999 10.9999 3.84999H12.9999C13.635 3.84999 14.1499 4.36487 14.1499 4.99999V5.14999ZM15.1491 10.0364C15.1692 9.56738 14.8053 9.17087 14.3363 9.15077C13.8673 9.13067 13.4708 9.49459 13.4507 9.9636L13.1507 16.9636C13.1306 17.4326 13.4945 17.8291 13.9635 17.8492C14.4325 17.8693 14.829 17.5054 14.8491 17.0364L15.1491 10.0364ZM10.5491 9.9636C10.529 9.49459 10.1325 9.13067 9.66351 9.15077C9.1945 9.17087 8.83058 9.56738 8.85068 10.0364L9.15068 17.0364C9.17078 17.5054 9.56729 17.8693 10.0363 17.8492C10.5053 17.8291 10.8692 17.4326 10.8491 16.9636L10.5491 9.9636Z" fill="#FF715D"/>
</svg>
