<svg width="18" height="18" viewBox="0 0 18 18" fill="none" xmlns="http://www.w3.org/2000/svg">
<path fill-rule="evenodd" clip-rule="evenodd" d="M8.99996 6.49996C8.53996 6.49996 8.16663 6.12663 8.16663 5.66663C8.16663 5.20663 8.53996 4.83329 8.99996 4.83329C9.45996 4.83329 9.83329 5.20663 9.83329 5.66663C9.83329 6.12663 9.45996 6.49996 8.99996 6.49996ZM9.83329 12.3333C9.83329 12.7933 9.45996 13.1666 8.99996 13.1666C8.53996 13.1666 8.16663 12.7933 8.16663 12.3333V8.16663C8.16663 7.70663 8.53996 7.33329 8.99996 7.33329C9.45996 7.33329 9.83329 7.70663 9.83329 8.16663V12.3333ZM8.99996 0.666626C4.39746 0.666626 0.666626 4.39746 0.666626 8.99996C0.666626 13.6025 4.39746 17.3333 8.99996 17.3333C13.6016 17.3333 17.3333 13.6025 17.3333 8.99996C17.3333 4.39746 13.6016 0.666626 8.99996 0.666626Z" fill="#99A8B1"/>
</svg>
