<svg width="28" height="28" viewBox="0 0 28 28" fill="none" xmlns="http://www.w3.org/2000/svg">
<path fill-rule="evenodd" clip-rule="evenodd" d="M9.33329 5.83341C9.33329 6.47508 8.80829 7.00008 8.16663 7.00008H6.99996V21.0001H8.16663C8.80829 21.0001 9.33329 21.5251 9.33329 22.1667C9.33329 22.8084 8.80829 23.3334 8.16663 23.3334H5.83329C5.19163 23.3334 4.66663 22.8084 4.66663 22.1667V5.83341C4.66663 5.19175 5.19163 4.66675 5.83329 4.66675H8.16663C8.80829 4.66675 9.33329 5.19175 9.33329 5.83341ZM21.0045 8.66235L24.2875 13.329C24.5792 13.742 24.5698 14.2962 24.2665 14.6998L20.7665 19.3665C20.5378 19.6722 20.1867 19.8332 19.832 19.8332C19.5893 19.8332 19.3432 19.7573 19.1332 19.5998C18.6175 19.2137 18.5137 18.4822 18.8998 17.9677L21.001 15.1665H20.9998H11.6665C11.0225 15.1665 10.4998 14.645 10.4998 13.9998C10.4998 13.3547 11.0225 12.8332 11.6665 12.8332H20.9998C21.0191 12.8332 21.037 12.8385 21.055 12.8439C21.0697 12.8482 21.0845 12.8526 21.1002 12.8542L19.0958 10.004C18.7248 9.47785 18.852 8.74985 19.3793 8.37885C19.9055 8.00668 20.6335 8.13501 21.0045 8.66235Z" fill="white"/>
</svg>
