<svg width="34" height="34" viewBox="0 0 34 34" fill="none" xmlns="http://www.w3.org/2000/svg">
<circle cx="17" cy="17" r="16" stroke="#99A8B1" stroke-width="2"/>
<path d="M17.8168 11.6667C17.8168 11.2156 17.4511 10.85 17.0001 10.85C16.5491 10.85 16.1834 11.2156 16.1834 11.6667V16.1833H11.6668C11.2157 16.1833 10.8501 16.549 10.8501 17C10.8501 17.451 11.2157 17.8167 11.6668 17.8167H16.1834V22.3333C16.1834 22.7844 16.5491 23.15 17.0001 23.15C17.4511 23.15 17.8168 22.7844 17.8168 22.3333V17.8167H22.3334C22.7845 17.8167 23.1501 17.451 23.1501 17C23.1501 16.549 22.7845 16.1833 22.3334 16.1833H17.8168V11.6667Z" fill="#99A8B1" stroke="#99A8B1" stroke-width="0.5" stroke-linecap="round" stroke-linejoin="round"/>
</svg>
