<svg width="339" height="339" viewBox="0 0 339 339" fill="none" xmlns="http://www.w3.org/2000/svg">
<g clip-path="url(#clip0_490_350)">
<path d="M225.19 86.153C225.19 86.153 222.144 83.4821 217.369 79.3174C219.017 75.6433 219.985 71.7693 220.277 67.8563C226.495 67.1054 230.464 66.6155 230.464 66.6155C230.464 66.6155 230.008 55.9674 228.715 53.8957C228.437 53.4494 224.447 53.4435 218.363 53.707C217.249 50.5812 215.676 47.603 213.651 44.8639C217.5 39.7199 219.885 36.224 219.665 35.7281C218.679 33.4948 210.13 27.1299 210.13 27.1299C210.13 27.1299 207.303 30.3544 202.934 35.3646C199.504 33.4186 195.842 32.1097 192.093 31.4396C191.252 25.7693 190.533 22.0946 190.06 21.9118C187.784 21.0306 177.238 22.574 177.238 22.574C177.238 22.574 177.474 26.1772 177.864 31.8978C174.138 32.8042 170.538 34.2979 167.251 36.4385C162.794 32.8115 159.899 30.6298 159.685 30.8887C158.641 32.1507 148.998 42.9471 150.26 43.9912C150.482 44.174 152.593 45.91 155.931 48.6392C154.162 51.8299 152.928 55.216 152.255 58.6834C147.885 59.0701 145.082 59.3257 144.794 59.3528C143.164 59.5071 145.067 73.8563 145.22 75.4871C145.249 75.7923 148.254 75.6725 153.119 75.2759C154.358 79.3584 156.356 83.2404 159.106 86.6887C156.276 90.215 154.638 92.4483 154.865 92.6351C156.127 93.6792 166.923 103.322 167.967 102.06C168.142 101.848 169.75 99.8918 172.293 96.7825C175.779 98.3014 179.44 99.2144 183.138 99.521C183.688 104.753 184.159 108.001 184.478 107.971C186.108 107.817 200.56 107.001 200.407 105.37C200.377 105.059 200.063 101.84 199.561 96.852C202.954 95.3994 206.135 93.374 208.981 90.8096C213.281 93.9831 216.144 95.886 216.59 95.6887C218.825 94.7022 225.19 86.153 225.19 86.153ZM170.879 84.6136C160.483 76.0108 159.029 60.6095 167.631 50.2131C176.234 39.8166 191.635 38.3626 202.031 46.9647C212.428 55.5675 213.882 70.9689 205.279 81.3653C196.677 91.7617 181.275 93.2164 170.879 84.6136Z" fill="white"/>
<path d="M184.474 108.739C183.667 108.739 183.353 108.739 182.442 100.228C179.034 99.8832 175.703 99.039 172.523 97.7154C170.192 100.567 168.726 102.348 168.559 102.55C168.35 102.802 168.035 102.941 167.67 102.941C166.22 102.941 162.628 100.35 155.273 93.997C154.847 93.6282 154.535 93.3581 154.376 93.227C153.72 92.6827 153.487 92.4901 158.127 86.6827C155.679 83.4993 153.812 79.9418 152.57 76.0903C149.748 76.3141 147.711 76.4273 146.511 76.4273C145.541 76.4273 144.537 76.4273 144.456 75.5579C144.437 75.352 144.39 74.9402 144.324 74.3781C142.995 62.8978 143.221 59.9302 143.97 59.0072C144.222 58.6947 144.52 58.6066 144.723 58.5874C145 58.5609 147.572 58.3259 151.617 57.9683C152.286 54.8107 153.406 51.7425 154.952 48.8319C151.897 46.3331 149.981 44.7573 149.77 44.5825C149.612 44.4527 149.417 44.2124 149.383 43.8124C149.284 42.6279 150.765 40.0464 158.323 31.2979C158.692 30.8709 158.962 30.5577 159.093 30.3988C159.24 30.2226 159.514 30.0995 159.743 30.0995C160.151 30.0995 160.656 30.0995 167.306 35.4924C170.271 33.6332 173.545 32.2288 177.055 31.3098C176.691 25.9613 176.472 22.6243 176.472 22.6243C176.446 22.2244 176.732 21.8715 177.128 21.8139C177.391 21.7755 183.609 20.871 187.527 20.871C188.857 20.871 189.777 20.9776 190.34 21.1955C190.884 21.406 191.397 21.6053 192.773 30.7854C196.259 31.4654 199.614 32.6771 202.764 34.3906C206.901 29.6486 209.554 26.6247 209.554 26.6247C209.819 26.3228 210.268 26.2765 210.591 26.5148C211.483 27.1783 219.333 33.0684 220.37 35.4182C220.616 35.9751 220.849 36.5008 214.607 44.8712C216.383 47.358 217.823 50.0594 218.893 52.9164C221.357 52.8145 223.383 52.7628 224.925 52.7628C228.648 52.7628 229.087 53.0376 229.369 53.4912C230.729 55.6708 231.186 65.4734 231.234 66.5837C231.251 66.9836 230.958 67.3306 230.56 67.3796C230.56 67.3796 226.853 67.8371 220.992 68.5462C220.655 72.1865 219.752 75.7354 218.302 79.1115C222.832 83.0643 225.699 85.5776 225.699 85.5776C225.999 85.8418 226.048 86.2927 225.809 86.6152C225.144 87.5064 219.253 95.3557 216.904 96.3939C216.807 96.4369 216.62 96.4733 216.513 96.4733C216.093 96.4726 215.398 96.4733 209.028 91.7982C206.409 94.0771 203.506 95.9363 200.384 97.3341C200.854 102.008 201.147 105.002 201.174 105.303C201.194 105.504 201.162 105.812 200.903 106.119C200.134 107.028 197.259 107.805 185.723 108.648C185.164 108.689 184.757 108.719 184.553 108.738C184.527 108.737 184.498 108.739 184.474 108.739ZM172.294 96.0131C172.397 96.0131 172.502 96.0343 172.602 96.0767C175.982 97.5512 179.549 98.451 183.203 98.753C183.57 98.7841 183.865 99.0721 183.904 99.4389C184.444 104.574 184.77 106.467 184.941 107.161C185.131 107.147 185.356 107.131 185.609 107.111C196.167 106.341 198.956 105.613 199.62 105.202C199.535 104.323 199.24 101.309 198.799 96.9282C198.764 96.5938 198.952 96.2767 199.261 96.1442C202.613 94.7081 205.71 92.7218 208.467 90.2362C208.742 89.9926 209.146 89.9734 209.439 90.1886C214.518 93.9361 216.015 94.7353 216.446 94.8981C217.978 94.0109 221.765 89.4086 224.147 86.2596C223.077 85.3214 220.462 83.0318 216.864 79.8948C216.61 79.6716 216.531 79.3095 216.668 79.0009C218.265 75.4388 219.221 71.6694 219.51 67.7967C219.538 67.4305 219.821 67.1346 220.185 67.0902C224.859 66.5268 228.262 66.109 229.662 65.9375C229.463 61.9953 228.919 56.0635 228.152 54.4651C227.884 54.4042 227.104 54.2969 224.923 54.2969C223.288 54.2969 221.092 54.3565 218.396 54.4731C218.057 54.4883 217.751 54.2804 217.639 53.9632C216.537 50.8705 214.986 47.9625 213.032 45.3187C212.831 45.0453 212.833 44.6725 213.035 44.4017C217.686 38.1858 218.687 36.3909 218.879 35.8738C217.993 34.343 213.387 30.5544 210.238 28.1708C209.265 29.2831 206.835 32.0587 203.513 35.8671C203.273 36.1419 202.875 36.2114 202.554 36.0307C199.236 34.1483 195.671 32.8572 191.957 32.1938C191.631 32.1361 191.38 31.8766 191.333 31.5495C190.326 24.749 189.804 23.0123 189.608 22.5713C189.305 22.4938 188.701 22.4058 187.526 22.4058C184.474 22.4058 179.809 22.9957 178.051 23.2341C178.139 24.5504 178.344 27.6199 178.631 31.8442C178.657 32.2169 178.409 32.5539 178.045 32.6427C174.276 33.559 170.785 35.0521 167.669 37.0801C167.392 37.2635 167.025 37.2443 166.766 37.0324C162.279 33.3816 160.575 32.1745 159.929 31.7852C159.805 31.9309 159.655 32.1044 159.485 32.301C152.571 40.3053 151.115 42.7895 150.936 43.5503C151.552 44.0568 153.524 45.6769 156.417 48.0427C156.705 48.2784 156.783 48.6849 156.603 49.01C154.88 52.1206 153.671 55.4232 153.011 58.8284C152.945 59.1648 152.664 59.4177 152.324 59.4475C148.527 59.7832 145.914 60.0202 145.106 60.0937C144.827 60.8227 144.635 63.6969 145.85 74.2C145.88 74.4575 145.907 74.684 145.928 74.8746C146.068 74.8819 146.257 74.8879 146.511 74.8879C147.754 74.8879 149.958 74.7594 153.057 74.5065C153.407 74.4787 153.751 74.7032 153.856 75.0501C155.096 79.14 157.065 82.8928 159.708 86.2066C159.933 86.4874 159.931 86.886 159.706 87.1667C157.039 90.4918 156.098 91.8445 155.766 92.3894C155.912 92.5146 156.083 92.6629 156.278 92.8317C164.283 99.7461 166.768 101.204 167.528 101.382C168.012 100.795 169.51 98.9721 171.7 96.2939C171.848 96.1125 172.069 96.0131 172.294 96.0131ZM186.442 90.991C180.6 90.991 174.898 88.9365 170.39 85.2055C165.204 80.9144 161.999 74.8594 161.365 68.1582C160.731 61.4563 162.747 54.9087 167.039 49.7224C171.843 43.9171 178.926 40.5873 186.469 40.5873C192.312 40.5873 198.012 42.6418 202.522 46.3728C213.228 55.2318 214.73 71.1496 205.872 81.8559C201.068 87.6613 193.986 90.991 186.442 90.991ZM186.469 42.1247C179.386 42.1247 172.735 45.2512 168.223 50.703C164.194 55.5728 162.301 61.7205 162.896 68.0139C163.49 74.3066 166.5 79.9914 171.37 84.0217C175.605 87.5256 180.958 89.4543 186.443 89.4543C193.527 89.4543 200.177 86.3285 204.69 80.876C213.006 70.8225 211.595 55.8761 201.544 47.5573C197.308 44.0535 191.955 42.1247 186.469 42.1247Z" fill="#241726"/>
<path d="M196.415 74.5144C201.122 68.9171 200.401 60.5631 194.804 55.8552C189.207 51.1473 180.853 51.8683 176.145 57.4656C171.437 63.0628 172.158 71.4168 177.755 76.1247C183.353 80.8326 191.707 80.1117 196.415 74.5144Z" fill="white"/>
<path d="M186.274 80.012C183.026 80.012 179.856 78.8698 177.349 76.7948C174.466 74.4085 172.683 71.043 172.331 67.3167C171.98 63.591 173.1 59.9514 175.487 57.0672C178.157 53.8388 182.095 51.9868 186.289 51.9868C189.537 51.9868 192.707 53.129 195.214 55.204C201.167 60.1295 202.004 68.9792 197.077 74.9322C194.406 78.16 190.468 80.012 186.274 80.012ZM186.289 53.5243C182.554 53.5243 179.049 55.1736 176.669 58.0471C174.545 60.6141 173.548 63.8545 173.862 67.1723C174.175 70.4888 175.761 73.4862 178.328 75.6102C180.56 77.4575 183.382 78.4745 186.274 78.4745C190.009 78.4745 193.514 76.8265 195.893 73.9523C200.278 68.6528 199.533 60.7737 194.234 56.3886C192.002 54.5413 189.181 53.5243 186.289 53.5243Z" fill="#241726"/>
<path d="M140.848 102.689C140.848 102.689 138.523 100.649 134.877 97.4698C136.135 94.6651 136.875 91.7074 137.097 88.72C141.844 88.1466 144.874 87.7725 144.874 87.7725C144.874 87.7725 144.525 79.6432 143.539 78.062C143.326 77.7217 140.28 77.7164 135.636 77.9177C134.786 75.5315 133.585 73.2578 132.039 71.1668C134.976 67.2399 136.797 64.5709 136.63 64.1922C135.877 62.4872 129.35 57.628 129.35 57.628C129.35 57.628 127.192 60.0891 123.856 63.9141C121.238 62.429 118.442 61.4292 115.58 60.9174C114.938 56.5885 114.389 53.7831 114.028 53.6434C112.29 52.9701 104.24 54.1493 104.24 54.1493C104.24 54.1493 104.42 56.9004 104.717 61.2676C101.873 61.9595 99.1244 63.1003 96.615 64.7344C93.2118 61.9655 91.003 60.2996 90.8388 60.4976C90.0416 61.461 82.6802 69.7029 83.6436 70.5001C83.8125 70.6398 85.424 71.9653 87.9725 74.0483C86.6224 76.4842 85.6803 79.0691 85.1665 81.7162C81.8301 82.0109 79.6908 82.2062 79.471 82.2274C78.2262 82.3452 79.6796 93.2998 79.7968 94.5446C79.8186 94.7776 82.1128 94.6863 85.8273 94.383C86.7721 97.4996 88.2982 100.463 90.3978 103.096C88.2373 105.788 86.9873 107.493 87.1601 107.636C88.1235 108.433 96.3654 115.794 97.1626 114.831C97.2963 114.669 98.5245 113.176 100.465 110.803C103.126 111.962 105.922 112.659 108.745 112.893C109.165 116.887 109.524 119.367 109.768 119.344C111.013 119.227 122.046 118.603 121.928 117.358C121.906 117.121 121.666 114.663 121.283 110.856C123.873 109.747 126.301 108.201 128.474 106.243C131.758 108.665 133.943 110.118 134.284 109.968C135.989 109.215 140.848 102.689 140.848 102.689ZM99.3853 101.513C91.4486 94.9458 90.3382 83.1874 96.9057 75.2507C103.473 67.314 115.232 66.2037 123.168 72.7711C131.105 79.3386 132.215 91.097 125.648 99.0337C119.08 106.97 107.322 108.081 99.3853 101.513Z" fill="white"/>
<path d="M109.766 120.113C108.996 120.113 108.747 120.113 108.047 113.599C105.524 113.329 103.056 112.704 100.697 111.735C98.9664 113.85 97.8812 115.168 97.7567 115.32C97.5614 115.557 97.27 115.686 96.937 115.686C95.9597 115.686 93.9555 114.517 87.3503 108.812C87.0272 108.532 86.7902 108.328 86.6703 108.228C86.0095 107.683 85.9764 107.398 89.4187 103.089C87.6085 100.711 86.2181 98.061 85.2799 95.1981C83.1949 95.361 81.6833 95.4444 80.7835 95.4444C80.0386 95.4444 79.113 95.4444 79.0316 94.6187C79.0163 94.4598 78.9806 94.1473 78.9309 93.7209C77.9053 84.8626 78.0828 82.6107 78.6999 81.848C78.8813 81.6242 79.1289 81.4871 79.3997 81.4613C79.6069 81.4421 81.5191 81.268 84.5291 81.0005C85.0362 78.6685 85.8639 76.3995 86.9954 74.2417C84.7303 72.3878 83.3114 71.2211 83.1539 71.0907C82.9466 70.9185 82.8175 70.6649 82.7937 70.3776C82.7109 69.399 83.8325 67.4358 89.6677 60.683C89.9451 60.3619 90.1484 60.1268 90.2484 60.007C90.394 59.8302 90.6549 59.713 90.8833 59.713C91.2554 59.713 91.6401 59.713 96.6702 63.7889C98.8757 62.4197 101.306 61.3762 103.907 60.6817C103.636 56.6845 103.473 54.1996 103.473 54.1996C103.448 53.7997 103.733 53.4468 104.129 53.3892C104.331 53.3601 109.089 52.6682 112.093 52.6682C113.145 52.6682 113.85 52.7509 114.306 52.9277C114.827 53.129 115.209 53.2753 116.261 60.2645C118.848 60.7823 121.339 61.6808 123.686 62.9421C126.788 59.3846 128.773 57.1222 128.773 57.1222C129.039 56.8202 129.489 56.7739 129.811 57.0123C130.928 57.8439 136.539 62.0834 137.333 63.8816C137.559 64.3948 137.738 64.8013 132.991 71.1741C134.296 73.0181 135.361 75.0163 136.164 77.1271C137.989 77.0523 139.495 77.0146 140.646 77.0146C143.482 77.0146 143.92 77.2205 144.192 77.6568C145.232 79.324 145.583 86.3483 145.643 87.7394C145.66 88.1393 145.367 88.4863 144.969 88.5353C144.969 88.5353 142.199 88.8769 137.808 89.4079C137.543 92.1133 136.87 94.7498 135.805 97.2612C139.207 100.228 141.354 102.111 141.354 102.111C141.655 102.375 141.702 102.826 141.463 103.148C140.632 104.265 136.392 109.876 134.594 110.671C134.496 110.714 134.33 110.747 134.223 110.747C133.86 110.747 133.319 110.747 128.517 107.229C126.567 108.908 124.415 110.285 122.102 111.334C122.454 114.828 122.67 117.06 122.692 117.287C122.718 117.556 122.629 117.826 122.443 118.046C121.81 118.796 119.631 119.392 110.736 120.041C110.31 120.072 109.996 120.095 109.84 120.109C109.817 120.111 109.79 120.113 109.766 120.113ZM100.466 110.034C100.569 110.034 100.673 110.055 100.774 110.098C103.336 111.215 106.04 111.896 108.808 112.126C109.176 112.157 109.47 112.445 109.509 112.812C109.892 116.448 110.133 117.93 110.266 118.534C110.374 118.526 110.494 118.517 110.626 118.507C118.219 117.952 120.492 117.433 121.134 117.125C121.056 116.326 120.837 114.095 120.519 110.933C120.485 110.599 120.672 110.282 120.98 110.149C123.523 109.06 125.873 107.554 127.961 105.671C128.232 105.428 128.639 105.408 128.932 105.624C132.555 108.298 133.766 108.988 134.159 109.163C135.316 108.428 138.026 105.136 139.805 102.797C138.919 102.021 136.986 100.327 134.373 98.0498C134.119 97.8267 134.04 97.4645 134.177 97.1559C135.387 94.4578 136.113 91.6002 136.331 88.6631C136.36 88.2969 136.642 88.001 137.007 87.9566C140.399 87.5468 142.915 87.2389 144.074 87.0972C143.918 84.164 143.528 79.9206 142.984 78.6593C142.735 78.6156 142.118 78.552 140.647 78.552C139.402 78.552 137.728 78.597 135.67 78.6864C135.323 78.7129 135.026 78.4937 134.914 78.1766C134.077 75.832 132.902 73.6272 131.42 71.6237C131.219 71.3502 131.22 70.9781 131.424 70.7067C134.812 66.1778 135.631 64.755 135.827 64.3173C135.091 63.1613 131.799 60.4506 129.46 58.6715C128.653 59.5925 126.854 61.6477 124.438 64.4193C124.199 64.6954 123.799 64.7636 123.478 64.5828C120.964 63.1553 118.26 62.1767 115.447 61.6742C115.121 61.6166 114.87 61.3564 114.823 61.0299C114.102 56.1727 113.714 54.7306 113.551 54.3049C113.319 54.2566 112.883 54.2042 112.095 54.2042C109.866 54.2042 106.503 54.6187 105.056 54.8121C105.129 55.8959 105.279 58.1597 105.487 61.2147C105.513 61.5888 105.265 61.9258 104.902 62.0138C102.043 62.7097 99.3961 63.8412 97.0363 65.378C96.7582 65.5601 96.3941 65.5415 96.1325 65.3297C92.9577 62.7468 91.6242 61.7775 91.0647 61.4193C90.9959 61.5007 90.9178 61.5901 90.8337 61.6881C85.85 67.4557 84.6098 69.4308 84.3741 70.1022C84.931 70.5603 86.3856 71.7548 88.462 73.4524C88.75 73.6881 88.8281 74.0947 88.6481 74.4198C87.3404 76.7789 86.4247 79.283 85.9248 81.8619C85.8586 82.1982 85.5792 82.4512 85.2375 82.481C82.5116 82.722 80.5855 82.8961 79.8526 82.963C79.6692 83.6516 79.5851 85.9809 80.4617 93.5435C80.477 93.6739 80.4902 93.7944 80.5021 93.903C81.2602 93.9249 83.1274 93.8315 85.7665 93.6163C86.1267 93.5938 86.4598 93.813 86.5651 94.1599C87.5066 97.2612 88.9983 100.106 91.0012 102.616C91.2263 102.897 91.225 103.296 90.9999 103.576C89.14 105.893 88.3892 106.942 88.0859 107.413C88.1687 107.484 88.2587 107.563 88.358 107.648C94.1224 112.627 96.0968 113.867 96.7675 114.103C97.2045 113.574 98.3062 112.232 99.8734 110.315C100.02 110.133 100.241 110.034 100.466 110.034ZM111.267 106.565C106.763 106.565 102.37 104.981 98.8962 102.105C94.8984 98.798 92.4294 94.1328 91.9414 88.9676C91.4534 83.8032 93.0054 78.7572 96.3146 74.7608C100.016 70.2869 105.475 67.7205 111.289 67.7205C115.791 67.7205 120.185 69.3037 123.658 72.1792C131.91 79.0069 133.068 91.2731 126.241 99.5243C122.538 103.998 117.08 106.565 111.267 106.565ZM111.288 69.2573C105.934 69.2573 100.908 71.6204 97.4971 75.7407C94.4528 79.4207 93.0219 84.0667 93.4709 88.8233C93.9211 93.5792 96.1954 97.8757 99.8748 100.921C103.075 103.568 107.121 105.027 111.267 105.027C116.62 105.027 121.646 102.663 125.057 98.5437C131.342 90.946 130.276 79.6498 122.679 73.363C119.479 70.7146 115.433 69.2573 111.288 69.2573Z" fill="#241726"/>
<path d="M118.933 93.7481C115.374 98.0498 109 98.6516 104.699 95.0921C100.397 91.5326 99.7952 85.1592 103.355 80.8575C106.914 76.5557 113.288 75.9539 117.589 79.5134C121.891 83.0729 122.493 89.4463 118.933 93.7481Z" fill="white"/>
<path d="M111.139 98.1816C108.616 98.1816 106.155 97.2943 104.21 95.6834C101.97 93.8308 100.586 91.2182 100.313 88.3247C100.04 85.432 100.91 82.6061 102.763 80.3668C104.836 77.8608 107.893 76.4227 111.15 76.4227C113.672 76.4227 116.133 77.3099 118.079 78.9208C122.7 82.7451 123.348 89.6165 119.525 94.238C117.452 96.7441 114.395 98.1816 111.139 98.1816ZM111.15 77.9601C108.353 77.9601 105.728 79.1949 103.946 81.3474C102.356 83.2695 101.61 85.6962 101.844 88.1804C102.079 90.664 103.267 92.9085 105.189 94.4989C106.861 95.882 108.973 96.6441 111.139 96.6441C113.936 96.6441 116.56 95.4093 118.342 93.2574C121.623 89.2894 121.066 83.3887 117.1 80.1053C115.428 78.7222 113.316 77.9601 111.15 77.9601Z" fill="#241726"/>
<path d="M159.091 214.579L196.648 213.161C196.648 213.161 195.188 268.302 197.313 271.136C199.439 273.971 236.331 293.236 237.04 295.362C237.748 297.488 127.912 296.071 125.077 295.362C122.243 294.654 162.635 271.978 162.635 271.978L159.091 214.579Z" fill="#FFCC41"/>
<path d="M69.3054 106.467C69.3054 106.467 62.289 251.002 69.3054 252.405C76.3218 253.808 281.196 253.808 285.406 252.405C289.616 251.002 283.68 101.185 278.066 99.7819C272.454 98.3782 59.483 93.8375 69.3054 106.467Z" fill="#FFCC41"/>
<path d="M87.7207 125.015C87.7207 125.015 81.9584 236.804 87.7207 237.945C93.483 239.086 261.742 239.086 265.2 237.945C268.657 236.804 264.326 120.056 259.716 118.915C255.106 117.774 79.6536 114.748 87.7207 125.015Z" fill="white"/>
<path d="M177.324 239.569C134.837 239.569 90.6079 239.3 87.5708 238.699C86.1943 238.427 83.3333 237.86 84.7906 181.033C85.466 154.679 86.7915 128.129 86.9385 125.233C86.5274 124.541 86.6955 123.946 86.8472 123.633C89.0401 119.122 123.216 116.835 188.427 116.835C224.269 116.835 257.821 117.654 259.9 118.168C260.738 118.375 262.138 118.722 263.923 139.528C264.914 151.07 265.805 166.503 266.433 182.985C266.979 197.336 267.257 210.741 267.214 220.731C267.137 238.115 266.196 238.426 265.439 238.675C262.805 239.545 186.066 239.569 177.324 239.569ZM188.427 118.373C98.1322 118.373 88.9076 122.913 88.2303 124.305C88.2197 124.328 88.1959 124.377 88.325 124.54C88.4389 124.686 88.4978 124.869 88.4872 125.055C86.3301 166.92 84.2782 234.393 87.9542 237.224C90.3305 237.679 127.953 238.032 177.324 238.032C225.135 238.032 261.433 237.702 264.794 237.242C267.981 230.633 263.142 124.113 259.429 119.64C256.807 119.205 225.258 118.373 188.427 118.373Z" fill="#241726"/>
<path d="M239.113 232.514C239.111 232.514 239.109 232.514 239.108 232.514L110.208 231.665C109.784 231.662 109.442 231.317 109.444 230.891C109.448 230.469 109.791 230.128 110.213 230.128C110.214 230.128 110.216 230.128 110.218 230.128L239.117 230.976C239.542 230.98 239.885 231.325 239.881 231.75C239.878 232.173 239.534 232.514 239.113 232.514Z" fill="#241726"/>
<path d="M125.477 227.505C125.477 227.505 122.085 172.384 124.629 171.535C127.173 170.687 155.158 170.687 155.158 170.687C155.158 170.687 154.309 222.416 154.309 225.808C154.309 229.2 125.477 227.505 125.477 227.505Z" fill="#8C80F8"/>
<path d="M164.486 227.404C164.486 227.404 161.094 159.217 163.638 158.168C166.182 157.119 194.166 157.119 194.166 157.119C194.166 157.119 193.318 221.11 193.318 225.306C193.318 229.502 164.486 227.404 164.486 227.404Z" fill="#8C80F8"/>
<path d="M204.343 228.121C204.343 228.121 200.952 142.784 203.495 141.472C206.039 140.159 234.024 140.159 234.024 140.159C234.024 140.159 233.176 220.243 233.176 225.495C233.176 230.746 204.343 228.121 204.343 228.121Z" fill="#F366CC"/>
<path d="M226.33 184.822C226.264 184.822 226.196 184.813 226.129 184.795C225.719 184.684 225.477 184.261 225.588 183.851C226.249 181.421 224.887 179.185 224.874 179.162C224.65 178.803 224.76 178.329 225.119 178.105C225.482 177.879 225.952 177.988 226.176 178.346C226.248 178.46 227.914 181.16 227.072 184.255C226.979 184.597 226.669 184.822 226.33 184.822Z" fill="#241726"/>
<path d="M222.456 190.866C222.39 190.866 222.322 190.858 222.255 190.838C221.845 190.727 221.603 190.305 221.714 189.896C222.379 187.443 221.013 185.229 221 185.207C220.773 184.848 220.881 184.374 221.24 184.147C221.599 183.925 222.075 184.029 222.3 184.389C222.372 184.502 224.037 187.202 223.198 190.298C223.104 190.641 222.795 190.866 222.456 190.866Z" fill="#241726"/>
<path d="M230.404 193.325C230.338 193.325 230.271 193.317 230.203 193.298C229.793 193.187 229.552 192.765 229.663 192.355C230.322 189.924 228.962 187.687 228.948 187.665C228.725 187.305 228.835 186.831 229.193 186.607C229.557 186.382 230.025 186.493 230.252 186.849C230.322 186.963 231.986 189.664 231.146 192.758C231.053 193.1 230.743 193.325 230.404 193.325Z" fill="#241726"/>
<path d="M218.614 180.639C218.548 180.639 218.481 180.63 218.413 180.612C218.003 180.5 217.762 180.078 217.873 179.668C218.534 177.237 217.172 175.001 217.158 174.979C216.935 174.619 217.045 174.146 217.403 173.922C217.767 173.696 218.236 173.806 218.46 174.163C218.532 174.276 220.199 176.977 219.357 180.072C219.263 180.414 218.953 180.639 218.614 180.639Z" fill="#241726"/>
<path d="M225.973 200.718C225.907 200.718 225.839 200.71 225.772 200.691C225.362 200.58 225.12 200.158 225.231 199.748C225.898 197.297 224.532 195.082 224.518 195.061C224.292 194.701 224.4 194.227 224.76 194.001C225.114 193.778 225.593 193.883 225.818 194.242C225.89 194.356 227.556 197.057 226.715 200.152C226.621 200.493 226.312 200.718 225.973 200.718Z" fill="#241726"/>
<path d="M224.559 211.078C224.412 211.078 224.263 211.036 224.131 210.948C223.778 210.712 223.684 210.234 223.921 209.881C225.335 207.771 224.746 205.236 224.74 205.212C224.641 204.799 224.895 204.384 225.308 204.284C225.725 204.185 226.135 204.441 226.235 204.851C226.267 204.982 226.983 208.073 225.197 210.738C225.05 210.959 224.807 211.078 224.559 211.078Z" fill="#241726"/>
<path d="M219.796 203.377C219.658 203.377 219.52 203.34 219.393 203.264C219.032 203.041 218.919 202.568 219.141 202.207C220.468 200.042 219.779 197.533 219.771 197.507C219.655 197.099 219.893 196.674 220.301 196.558C220.712 196.44 221.136 196.679 221.251 197.088C221.287 197.217 222.126 200.276 220.449 203.009C220.306 203.246 220.054 203.377 219.796 203.377Z" fill="#241726"/>
<path d="M186.241 183.363C186.175 183.363 186.107 183.355 186.04 183.336C185.63 183.225 185.388 182.802 185.499 182.393C186.166 179.941 184.8 177.727 184.786 177.706C184.56 177.346 184.668 176.871 185.028 176.645C185.384 176.422 185.861 176.528 186.086 176.887C186.158 177 187.824 179.702 186.983 182.796C186.89 183.138 186.581 183.363 186.241 183.363Z" fill="#241726"/>
<path d="M182.367 189.406C182.301 189.406 182.234 189.398 182.166 189.379C181.756 189.268 181.515 188.846 181.626 188.436C182.291 185.985 180.926 183.77 180.911 183.749C180.686 183.39 180.794 182.916 181.154 182.689C181.51 182.466 181.986 182.571 182.214 182.931C182.285 183.044 183.948 185.745 183.109 188.839C183.016 189.181 182.706 189.406 182.367 189.406Z" fill="#241726"/>
<path d="M190.316 191.867C190.25 191.867 190.182 191.858 190.115 191.84C189.705 191.728 189.463 191.306 189.574 190.896C190.241 188.444 188.874 186.23 188.861 186.209C188.635 185.849 188.743 185.375 189.102 185.149C189.462 184.926 189.936 185.03 190.162 185.391C190.234 185.504 191.9 188.205 191.058 191.3C190.964 191.642 190.655 191.867 190.316 191.867Z" fill="#241726"/>
<path d="M178.526 179.18C178.459 179.18 178.392 179.172 178.324 179.153C177.915 179.042 177.673 178.619 177.784 178.209C178.451 175.758 177.084 173.544 177.071 173.522C176.845 173.163 176.953 172.688 177.313 172.462C177.667 172.24 178.146 172.344 178.371 172.704C178.443 172.817 180.109 175.519 179.267 178.613C179.174 178.955 178.865 179.18 178.526 179.18Z" fill="#241726"/>
<path d="M185.885 199.26C185.819 199.26 185.752 199.252 185.684 199.233C185.274 199.121 185.033 198.7 185.144 198.29C185.809 195.837 184.443 193.623 184.43 193.601C184.203 193.242 184.311 192.768 184.67 192.541C185.029 192.318 185.505 192.422 185.73 192.783C185.802 192.896 187.467 195.596 186.628 198.692C186.534 199.035 186.224 199.26 185.885 199.26Z" fill="#241726"/>
<path d="M184.47 209.619C184.323 209.619 184.173 209.576 184.043 209.489C183.69 209.252 183.595 208.775 183.833 208.422C185.247 206.312 184.658 203.777 184.652 203.753C184.553 203.34 184.807 202.925 185.22 202.825C185.632 202.725 186.047 202.982 186.147 203.393C186.179 203.523 186.895 206.615 185.109 209.278C184.962 209.499 184.718 209.619 184.47 209.619Z" fill="#241726"/>
<path d="M179.707 201.918C179.569 201.918 179.431 201.882 179.304 201.805C178.943 201.583 178.83 201.11 179.052 200.748C180.368 198.601 179.69 196.071 179.682 196.046C179.57 195.637 179.807 195.214 180.215 195.099C180.616 194.987 181.047 195.221 181.163 195.629C181.199 195.758 182.038 198.818 180.361 201.551C180.217 201.788 179.965 201.918 179.707 201.918Z" fill="#241726"/>
<path d="M147.834 189.272C147.768 189.272 147.701 189.264 147.633 189.245C147.223 189.134 146.982 188.711 147.093 188.301C147.759 185.85 146.393 183.635 146.38 183.614C146.153 183.255 146.261 182.781 146.621 182.554C146.977 182.331 147.453 182.436 147.679 182.796C147.752 182.909 149.417 185.61 148.576 188.705C148.483 189.047 148.173 189.272 147.834 189.272Z" fill="#241726"/>
<path d="M143.959 195.316C143.893 195.316 143.826 195.307 143.758 195.289C143.348 195.177 143.107 194.755 143.218 194.345C143.885 191.894 142.518 189.679 142.505 189.658C142.278 189.298 142.386 188.824 142.745 188.598C143.104 188.375 143.578 188.48 143.805 188.84C143.877 188.953 145.543 191.654 144.701 194.749C144.608 195.091 144.299 195.316 143.959 195.316Z" fill="#241726"/>
<path d="M151.908 197.775C151.842 197.775 151.774 197.767 151.707 197.748C151.297 197.637 151.055 197.215 151.166 196.805C151.833 194.354 150.467 192.139 150.453 192.117C150.227 191.757 150.335 191.283 150.695 191.057C151.051 190.835 151.528 190.939 151.753 191.299C151.825 191.412 153.492 194.113 152.65 197.208C152.557 197.55 152.248 197.775 151.908 197.775Z" fill="#241726"/>
<path d="M140.118 185.089C140.052 185.089 139.984 185.08 139.917 185.062C139.507 184.95 139.265 184.528 139.376 184.118C140.036 181.687 138.675 179.452 138.662 179.429C138.438 179.069 138.548 178.596 138.907 178.372C139.268 178.146 139.738 178.255 139.964 178.613C140.036 178.727 141.702 181.427 140.86 184.522C140.767 184.864 140.458 185.089 140.118 185.089Z" fill="#241726"/>
<path d="M147.479 205.169C147.412 205.169 147.345 205.16 147.277 205.141C146.867 205.03 146.626 204.608 146.737 204.199C147.396 201.767 146.034 199.531 146.021 199.508C145.797 199.149 145.907 198.675 146.266 198.451C146.63 198.224 147.099 198.335 147.323 198.692C147.395 198.806 149.06 201.506 148.221 204.601C148.127 204.943 147.818 205.169 147.479 205.169Z" fill="#241726"/>
<path d="M146.063 215.527C145.916 215.527 145.766 215.485 145.635 215.397C145.283 215.161 145.188 214.684 145.426 214.331C146.84 212.221 146.251 209.686 146.245 209.662C146.146 209.248 146.4 208.834 146.813 208.734C147.232 208.635 147.64 208.89 147.74 209.301C147.772 209.432 148.488 212.523 146.701 215.187C146.554 215.408 146.311 215.527 146.063 215.527Z" fill="#241726"/>
<path d="M141.3 207.827C141.161 207.827 141.024 207.79 140.897 207.714C140.536 207.491 140.423 207.018 140.645 206.657C141.972 204.491 141.283 201.983 141.275 201.957C141.159 201.549 141.397 201.124 141.805 201.008C142.217 200.891 142.64 201.13 142.755 201.538C142.791 201.667 143.63 204.726 141.953 207.459C141.81 207.696 141.558 207.827 141.3 207.827Z" fill="#241726"/>
<path d="M56.9775 92.7324C56.3922 92.7324 55.8843 92.7331 54.4284 86.9363C49.5241 85.9921 49.105 85.43 48.9448 85.2135C48.8024 85.0221 48.7422 84.6739 48.8064 84.4441C48.8964 84.127 49.1037 83.3914 54.7137 81.1283C56.7325 75.8718 57.4231 75.8718 57.8839 75.8718C58.1256 75.8718 58.4573 76.0439 58.603 76.2379C58.9645 76.7259 59.2922 77.9839 59.7875 79.9974C59.9418 80.6224 60.1265 81.3772 60.2351 81.7149C60.5324 81.846 61.1746 82.0771 61.7089 82.2678C64.6017 83.3053 65.3479 83.6595 65.4856 84.3587C65.5366 84.6242 65.4028 85.0089 65.2015 85.1896C64.6129 85.7167 61.8314 86.7502 60.3662 87.272C57.9885 92.6801 57.4747 92.7072 57.0199 92.7311C57.0073 92.7324 56.9907 92.7324 56.9775 92.7324ZM50.9172 84.5534C51.9037 84.8334 53.6616 85.2314 55.1971 85.5174C55.493 85.573 55.7301 85.7968 55.8022 86.0894C56.1955 87.6818 56.7073 89.494 57.0814 90.5507C57.625 89.5662 58.4341 87.8606 59.0929 86.3516C59.1783 86.1563 59.3406 86.0047 59.5418 85.9345C60.8522 85.4737 62.3313 84.9082 63.2708 84.5004C62.6206 84.2289 61.7546 83.9184 61.1905 83.7158C59.5359 83.1225 59.2254 82.9934 59.0095 82.7034C58.8235 82.4538 58.7076 82.0373 58.2964 80.3662C58.1461 79.7557 57.9183 78.8268 57.7111 78.115C57.2251 79.0525 56.5551 80.6098 56.0327 81.9897C55.9559 82.191 55.7983 82.3518 55.599 82.4313C53.8927 83.1113 51.9561 83.978 50.9172 84.5534Z" fill="#241726"/>
<path d="M256.911 42.4545C256.326 42.4545 255.82 42.4551 254.363 36.6584C249.459 35.7142 249.04 35.1521 248.88 34.9355C248.737 34.7449 248.677 34.3959 248.742 34.1668C248.831 33.8484 249.038 33.1128 254.649 30.8503C256.668 25.5938 257.359 25.5938 257.819 25.5938C258.061 25.5938 258.393 25.766 258.538 25.96C258.902 26.4486 259.229 27.7093 259.724 29.7281C259.877 30.3504 260.062 31.0993 260.17 31.437C260.467 31.5681 261.108 31.7985 261.641 31.9892C264.535 33.0273 265.281 33.3816 265.42 34.0808C265.471 34.3463 265.337 34.731 265.136 34.9117C264.549 35.4381 261.77 36.4723 260.302 36.994C257.925 42.4022 257.41 42.4293 256.955 42.4531C256.941 42.4545 256.924 42.4545 256.911 42.4545ZM250.852 34.2748C251.839 34.5548 253.596 34.9534 255.132 35.2395C255.428 35.2951 255.665 35.5189 255.737 35.8115C256.13 37.4032 256.642 39.2161 257.016 40.2728C257.56 39.2883 258.369 37.5827 259.028 36.0737C259.113 35.8784 259.275 35.7268 259.477 35.6566C260.787 35.1958 262.266 34.6303 263.204 34.2225C262.554 33.951 261.688 33.6398 261.122 33.4372C259.471 32.8453 259.16 32.7168 258.944 32.4275C258.756 32.1745 258.642 31.7594 258.232 30.0955C258.082 29.4831 257.852 28.5508 257.645 27.8371C257.159 28.7746 256.489 30.3319 255.967 31.7117C255.89 31.913 255.732 32.0732 255.533 32.1534C253.828 32.834 251.892 33.7 250.852 34.2748Z" fill="#241726"/>
<path d="M252.599 303.392C252.014 303.392 251.506 303.392 250.05 297.596C245.146 296.651 244.727 296.089 244.566 295.873C244.424 295.681 244.364 295.333 244.428 295.103C244.518 294.786 244.725 294.05 250.337 291.788C252.354 286.531 253.045 286.53 253.506 286.53C253.747 286.53 254.079 286.703 254.225 286.897C254.588 287.385 254.914 288.643 255.409 290.658C255.564 291.283 255.749 292.036 255.857 292.375C256.154 292.506 256.796 292.736 257.329 292.928C260.223 293.966 260.969 294.32 261.108 295.019C261.159 295.284 261.025 295.67 260.824 295.85C260.237 296.377 257.455 297.41 255.988 297.933C253.612 303.341 253.097 303.368 252.642 303.392C252.629 303.392 252.612 303.392 252.599 303.392ZM246.539 295.212C247.525 295.492 249.283 295.89 250.819 296.176C251.115 296.232 251.352 296.455 251.424 296.748C251.817 298.341 252.329 300.153 252.703 301.21C253.247 300.226 254.056 298.519 254.715 297.012C254.8 296.816 254.962 296.664 255.163 296.594C256.474 296.133 257.953 295.568 258.892 295.159C258.242 294.888 257.376 294.577 256.812 294.374C255.159 293.783 254.848 293.654 254.632 293.365C254.445 293.112 254.329 292.696 253.918 291.025C253.768 290.414 253.54 289.486 253.334 288.774C252.847 289.712 252.178 291.269 251.656 292.648C251.579 292.85 251.421 293.01 251.222 293.09C249.514 293.771 247.579 294.637 246.539 295.212Z" fill="#241726"/>
<path d="M300.326 132.027C300.326 132.027 298.794 121.215 309.248 124.616C319.702 128.018 316.404 137.962 312.399 134.609C308.393 131.256 315.734 119.68 323.758 124.724C331.781 129.769 330.095 139.725 324.446 140.514C318.798 141.303 327.758 128.908 334.956 136.439C342.155 143.97 326.734 157.978 320.323 152.945C313.912 147.913 318.81 139.642 320.385 144.638C321.96 149.634 317.893 154.589 306.607 154.505C295.322 154.42 300.289 137.011 304.282 142.026C308.275 147.04 301.783 152.807 293.766 146.932C285.749 141.056 294.708 128.662 300.326 132.027Z" fill="white"/>
<path d="M306.89 155.273L306.602 155.273C302.891 155.245 300.258 153.374 299.298 150.116C297.349 149.882 295.293 149.002 293.311 147.551C290.136 145.224 289.044 141.657 290.319 137.763C291.616 133.796 295.106 130.687 298.262 130.687C298.681 130.687 299.087 130.739 299.479 130.842C299.457 129.315 299.683 126.767 301.198 125.022C302.9 123.06 305.718 122.658 309.486 123.885C310.927 124.353 312.192 124.967 313.26 125.711C316.248 122.517 320.53 121.789 324.167 124.074C327.633 126.254 329.763 129.632 329.986 133.235C332.005 133.285 333.863 134.184 335.512 135.908C337.78 138.28 338.215 141.493 336.737 144.954C334.498 150.188 328.371 154.779 323.622 154.779C322.157 154.779 320.888 154.366 319.848 153.55C319.356 153.163 318.91 152.746 318.513 152.302C315.97 154.249 311.976 155.273 306.89 155.273ZM300.929 150.156C301.599 151.94 303.139 153.71 306.614 153.735L306.89 153.736C312.728 153.736 315.897 152.373 317.591 151.073C315.981 148.501 316.088 145.683 316.969 143.929C317.481 142.907 318.233 142.322 319.033 142.322C319.566 142.322 320.545 142.593 321.116 144.406C321.907 146.911 321.371 149.375 319.65 151.266C319.987 151.647 320.372 152.006 320.796 152.339C321.559 152.939 322.509 153.242 323.622 153.242C327.756 153.242 333.333 149.003 335.322 144.349C336.187 142.327 336.728 139.404 334.4 136.97C333.049 135.556 331.556 134.817 329.963 134.772C329.64 138.237 327.489 140.865 324.553 141.275C322.613 141.546 321.941 140.521 321.899 139.571C321.805 137.527 324.711 134.07 328.453 133.362C328.272 130.243 326.401 127.295 323.349 125.376C320.348 123.491 316.951 124.079 314.457 126.683C316.939 129.019 317.413 131.907 316.73 133.847C316.252 135.211 315.21 136.06 314.013 136.06H314.012C313.306 136.06 312.577 135.762 311.904 135.199C309.684 133.34 310.342 129.677 312.286 126.909C311.363 126.28 310.265 125.756 309.012 125.349C305.878 124.332 303.648 124.549 302.359 126.032C300.569 128.092 301.081 131.882 301.087 131.92C301.129 132.213 300.997 132.504 300.75 132.668C300.503 132.832 300.184 132.84 299.931 132.686C299.42 132.381 298.859 132.226 298.262 132.226C295.773 132.226 292.865 134.925 291.779 138.242C291.281 139.766 290.521 143.602 294.221 146.312C295.813 147.48 297.439 148.23 298.978 148.514C298.697 145.994 299.333 143.161 300.605 141.567C301.407 140.562 302.221 140.351 302.763 140.351C303.296 140.351 304.097 140.558 304.884 141.547C306.322 143.351 306.658 145.397 305.807 147.16C304.983 148.872 303.145 149.987 300.929 150.156ZM319.033 143.859C318.933 143.859 318.631 144.045 318.343 144.618C317.712 145.876 317.618 147.995 318.73 149.981C319.914 148.532 320.243 146.747 319.652 144.869C319.387 144.031 319.096 143.859 319.033 143.859ZM302.762 141.887C302.474 141.887 302.134 142.113 301.806 142.524C300.858 143.711 300.18 146.242 300.542 148.638C302.332 148.58 303.807 147.769 304.422 146.492C305.006 145.281 304.736 143.828 303.681 142.504C303.457 142.223 303.117 141.887 302.762 141.887ZM328.396 134.944C325.438 135.664 323.385 138.403 323.435 139.501C323.441 139.632 323.447 139.781 323.96 139.781C324.076 139.781 324.203 139.771 324.34 139.753C326.467 139.455 328.049 137.532 328.396 134.944ZM313.482 127.876C311.837 130.242 311.545 132.893 312.892 134.02C313.899 134.864 314.856 134.552 315.28 133.337C315.786 131.898 315.394 129.722 313.482 127.876Z" fill="#241726"/>
<path d="M112.621 134.249C112.621 134.249 163.563 87.0078 167.77 91.9028C171.976 96.7977 187.682 115.661 187.682 115.661C187.682 115.661 224.187 81.8096 221.119 77.0007C218.05 72.1918 206.008 63.4453 207.485 59.5058C208.687 56.3012 261.365 49.153 262.244 52.6516C263.123 56.1509 258.027 108.397 254.872 104.726C251.717 101.054 236.886 90.3978 236.886 90.3978C236.886 90.3978 194.545 145.928 188.771 146.636C182.996 147.343 167.48 125.574 167.48 125.574C167.48 125.574 142.165 154.93 136.255 158.869C130.56 162.667 109.915 139.766 112.621 134.249Z" fill="#00CCC1"/>
<path d="M17.0948 128.341C17.0948 128.341 74.2275 80.4284 103.069 136.479C121.859 172.995 76.1834 189.398 97.8489 193.337C127.933 198.807 64.0714 222.983 41.7153 215.003C14.6741 205.351 -22.0789 168.031 17.0948 128.341Z" fill="#8C80F8"/>
<path d="M33.2773 158.251C33.2773 158.251 49.842 149.112 51.5555 146.257C53.2691 143.401 47.5571 125.123 50.9841 126.265C54.4112 127.407 62.4082 133.119 62.4082 138.831C62.4082 138.831 74.9743 132.548 77.83 135.975C80.6857 139.402 91.5383 153.682 90.3962 164.534C89.2541 175.387 59.5525 179.385 51.5555 183.955C43.5592 188.524 33.2773 158.251 33.2773 158.251Z" fill="#FDFFFF"/>
<path d="M22.591 157.75C22.591 157.75 38.5446 150.305 38.8994 150.305C39.2537 150.305 56.6261 185.049 54.853 186.821C53.0805 188.594 39.2537 195.684 38.5446 194.621C37.8361 193.557 20.1094 158.459 22.591 157.75Z" fill="#00CCC1"/>
<path d="M323.967 192.122C323.967 192.122 275.583 152.753 247.228 199.768C228.723 230.45 258.781 249.329 239.797 252.058C213.435 255.846 271.841 274.528 292.222 273.958C324.118 273.065 359.931 229.655 323.967 192.122Z" fill="#00CCC1"/>
<path d="M274.187 195.773C274.187 195.773 314.526 202.617 315.082 206.281C315.637 209.946 291.713 229.459 291.713 229.459C291.713 229.459 306.569 258.621 302.312 259.525C298.054 260.428 263.147 251.729 261.632 249.826C260.115 247.924 283.689 228.88 282.173 226.977C280.656 225.074 270.542 194.322 274.187 195.773Z" fill="#FDFFFF"/>
<path d="M282.646 209.329C282.646 209.329 301.338 212.458 300.765 213.826C300.192 215.194 289.163 230.096 287.397 228.553C285.631 227.01 279.797 209.454 282.646 209.329Z" fill="#8C80F8"/>
<path d="M267.793 246.425C267.793 246.425 283.248 235.735 286.953 237.757C289.231 239 300.596 252.793 299.016 253.032C297.437 253.271 266.919 247.281 267.793 246.425Z" fill="#8C80F8"/>
<path d="M272.841 192.04C272.841 192.04 317.417 201.471 317.762 202.644C318.107 203.817 317.757 208.494 316.23 208.531C314.704 208.567 272.723 199.161 272.069 198.34C271.415 197.52 271.668 192.384 272.841 192.04Z" fill="#8C80F8"/>
<path d="M259.084 247.41C259.084 247.41 304.983 256.752 305.328 257.925C305.673 259.099 303.999 263.864 302.473 263.901C300.946 263.937 258.965 254.531 258.312 253.71C257.658 252.891 257.91 247.755 259.084 247.41Z" fill="#8C80F8"/>
<path d="M131.542 318.13C130.551 318.13 129.554 318.053 128.577 317.903C128.156 317.838 127.87 317.446 127.935 317.026C128 316.606 128.399 316.325 128.811 316.384C129.712 316.523 130.629 316.593 131.542 316.593C131.546 316.593 131.551 316.593 131.557 316.593L131.749 316.592C131.752 316.592 131.755 316.592 131.758 316.592C132.179 316.592 132.522 316.931 132.527 317.352C132.532 317.777 132.192 318.125 131.768 318.129L131.558 318.13C131.552 318.13 131.546 318.13 131.542 318.13ZM134.81 317.855C134.443 317.855 134.117 317.589 134.053 317.213C133.982 316.794 134.266 316.398 134.685 316.329C135.629 316.171 136.599 315.937 137.566 315.636C137.979 315.508 138.403 315.737 138.53 316.141C138.656 316.546 138.429 316.977 138.025 317.103C136.99 317.426 135.952 317.675 134.937 317.845C134.895 317.852 134.852 317.855 134.81 317.855ZM125.709 317.197C125.631 317.197 125.55 317.185 125.472 317.16C124.482 316.839 123.491 316.432 122.525 315.952C122.145 315.763 121.99 315.302 122.178 314.922C122.368 314.541 122.83 314.388 123.209 314.575C124.108 315.022 125.029 315.4 125.946 315.698C126.35 315.829 126.57 316.262 126.44 316.666C126.334 316.992 126.033 317.197 125.709 317.197ZM140.665 316.042C140.372 316.042 140.092 315.873 139.964 315.588C139.79 315.201 139.963 314.746 140.35 314.572C141.23 314.177 142.128 313.717 143.018 313.206C143.381 312.994 143.854 313.119 144.067 313.489C144.279 313.857 144.151 314.326 143.784 314.538C142.85 315.075 141.907 315.559 140.981 315.974C140.878 316.02 140.77 316.042 140.665 316.042ZM120.212 314.488C120.065 314.488 119.917 314.446 119.786 314.359C119.208 313.974 118.632 313.556 118.054 313.103C117.788 312.895 117.526 312.686 117.266 312.475C116.938 312.208 116.886 311.724 117.154 311.395C117.424 311.064 117.907 311.016 118.236 311.282C118.487 311.486 118.743 311.69 119.003 311.893C119.548 312.32 120.095 312.716 120.64 313.08C120.992 313.315 121.088 313.793 120.853 314.146C120.704 314.368 120.461 314.488 120.212 314.488ZM145.998 312.994C145.755 312.994 145.516 312.878 145.367 312.663C145.125 312.314 145.212 311.835 145.56 311.593C146.364 311.036 147.18 310.427 147.981 309.783C148.314 309.519 148.796 309.569 149.062 309.901C149.327 310.232 149.275 310.715 148.945 310.981C148.113 311.648 147.27 312.279 146.436 312.857C146.303 312.949 146.15 312.994 145.998 312.994ZM115.425 310.639C115.239 310.639 115.053 310.572 114.906 310.436C114.124 309.718 113.375 308.98 112.676 308.243C112.385 307.935 112.399 307.448 112.706 307.156C113.014 306.865 113.5 306.878 113.793 307.186C114.466 307.897 115.191 308.611 115.945 309.304C116.258 309.591 116.278 310.078 115.991 310.39C115.84 310.555 115.633 310.639 115.425 310.639ZM150.799 309.149C150.591 309.149 150.382 309.065 150.231 308.898C149.945 308.583 149.968 308.097 150.283 307.812C151.042 307.122 151.773 306.418 152.473 305.71C152.772 305.408 153.258 305.405 153.56 305.703C153.862 306.002 153.864 306.488 153.566 306.79C152.848 307.518 152.096 308.241 151.315 308.951C151.168 309.083 150.984 309.149 150.799 309.149ZM111.212 306.17C110.988 306.17 110.766 306.073 110.613 305.884C109.943 305.052 109.315 304.2 108.751 303.353C108.516 302.999 108.612 302.522 108.965 302.287C109.314 302.052 109.794 302.145 110.031 302.5C110.57 303.309 111.169 304.123 111.811 304.919C112.076 305.25 112.024 305.733 111.694 305.999C111.553 306.114 111.381 306.17 111.212 306.17ZM155.134 304.78C154.951 304.78 154.767 304.714 154.619 304.582C154.304 304.299 154.278 303.812 154.563 303.497C155.269 302.712 155.933 301.939 156.556 301.188C156.824 300.862 157.309 300.815 157.638 301.088C157.965 301.358 158.01 301.844 157.739 302.17C157.104 302.936 156.425 303.726 155.705 304.525C155.553 304.693 155.345 304.78 155.134 304.78ZM107.816 301.057C107.542 301.057 107.274 300.908 107.136 300.647C106.637 299.699 106.195 298.732 105.823 297.773C105.668 297.377 105.865 296.932 106.261 296.778C106.656 296.628 107.103 296.821 107.255 297.216C107.607 298.121 108.024 299.034 108.496 299.929C108.694 300.305 108.55 300.77 108.175 300.968C108.061 301.028 107.938 301.057 107.816 301.057ZM159.06 300.036C158.896 300.036 158.733 299.985 158.594 299.879C158.257 299.621 158.19 299.139 158.449 298.801C159.136 297.898 159.738 297.065 160.248 296.337C160.491 295.988 160.971 295.907 161.319 296.149C161.666 296.393 161.751 296.872 161.506 297.22C160.986 297.962 160.373 298.811 159.67 299.732C159.521 299.931 159.291 300.036 159.06 300.036ZM105.61 295.335C105.263 295.335 104.95 295.1 104.863 294.749C104.618 293.754 104.443 292.749 104.336 291.761C104.326 291.741 104.317 291.722 104.307 291.702C104.131 291.316 104.301 290.859 104.687 290.683C105.577 290.275 106.478 289.813 107.36 289.309C107.724 289.097 108.197 289.224 108.41 289.595C108.62 289.964 108.49 290.433 108.123 290.644C107.386 291.065 106.637 291.458 105.89 291.817C105.991 292.666 106.147 293.529 106.356 294.384C106.458 294.796 106.204 295.212 105.793 295.313C105.731 295.329 105.669 295.335 105.61 295.335ZM162.587 294.977C162.446 294.977 162.305 294.939 162.179 294.859C161.819 294.633 161.711 294.159 161.936 293.799C162.071 293.585 162.152 293.453 162.173 293.416L162.829 293.792L163.586 293.58C163.679 293.914 163.595 294.049 163.239 294.617C163.092 294.85 162.843 294.977 162.587 294.977ZM94.279 294.665C93.8658 294.665 93.4533 294.653 93.0402 294.629C92.6171 294.606 92.2926 294.243 92.3165 293.819C92.3403 293.397 92.6786 293.076 93.1269 293.095C94.1207 293.153 95.1053 293.135 96.0885 293.05C96.4957 293.004 96.8824 293.326 96.9201 293.751C96.9559 294.173 96.6427 294.546 96.2203 294.582C95.5754 294.637 94.9285 294.665 94.279 294.665ZM90.0408 294.224C89.9865 294.224 89.9329 294.218 89.8786 294.206C88.8431 293.986 87.8128 293.682 86.821 293.303C86.4244 293.151 86.2264 292.707 86.378 292.31C86.5296 291.913 86.9772 291.716 87.3705 291.866C88.2895 292.217 89.241 292.499 90.2004 292.703C90.6149 292.791 90.8804 293.2 90.7916 293.615C90.7135 293.977 90.395 294.224 90.0408 294.224ZM99.1918 294.12C98.8376 294.12 98.5191 293.875 98.441 293.515C98.3496 293.101 98.6138 292.691 99.0283 292.601C99.9738 292.394 100.941 292.123 101.903 291.796C102.306 291.657 102.741 291.874 102.879 292.276C103.016 292.677 102.801 293.114 102.398 293.251C101.382 293.598 100.358 293.884 99.3554 294.102C99.2998 294.115 99.2461 294.12 99.1918 294.12ZM84.3156 292.047C84.1878 292.047 84.0573 292.015 83.9388 291.949C83.1615 291.512 82.3868 291.014 81.6406 290.47L81.2891 290.211C80.9481 289.958 80.8766 289.476 81.1301 289.136C81.387 288.794 81.8704 288.727 82.2047 288.978L82.5471 289.229C83.2436 289.736 83.966 290.201 84.6923 290.61C85.0618 290.818 85.1935 291.286 84.9849 291.657C84.8439 291.906 84.5844 292.047 84.3156 292.047ZM105.015 289.239C105.003 289.239 104.989 289.239 104.976 289.239C104.551 289.216 104.225 288.855 104.248 288.431C104.302 287.36 104.443 286.295 104.666 285.265C104.755 284.851 105.159 284.583 105.579 284.675C105.994 284.765 106.258 285.174 106.168 285.589C105.964 286.539 105.833 287.522 105.782 288.51C105.761 288.921 105.422 289.239 105.015 289.239ZM110.346 289.109C110.101 289.109 109.861 288.993 109.712 288.776C109.472 288.426 109.56 287.948 109.91 287.708C110.734 287.142 111.548 286.535 112.328 285.904C112.66 285.639 113.142 285.689 113.409 286.02C113.676 286.35 113.625 286.834 113.295 287.101C112.483 287.757 111.637 288.387 110.781 288.975C110.648 289.066 110.496 289.109 110.346 289.109ZM79.3193 288.474C79.1465 288.474 78.9743 288.417 78.8313 288.3C78.001 287.617 77.2204 286.933 76.4821 286.247C76.1716 285.958 76.1537 285.472 76.4431 285.161C76.7344 284.851 77.2191 284.834 77.5296 285.122C78.244 285.786 79.0034 286.452 79.8066 287.113C80.135 287.383 80.182 287.867 79.9119 288.196C79.7609 288.379 79.5417 288.474 79.3193 288.474ZM115.125 285.246C114.922 285.246 114.719 285.166 114.567 285.006C114.276 284.697 114.29 284.21 114.597 283.918C115.337 283.219 116.045 282.492 116.699 281.76C116.985 281.444 117.472 281.419 117.784 281.7C118.1 281.982 118.127 282.468 117.845 282.785C117.161 283.549 116.424 284.306 115.654 285.035C115.505 285.176 115.314 285.246 115.125 285.246ZM74.8282 284.285C74.6243 284.285 74.4197 284.205 74.268 284.043C73.5417 283.27 72.8498 282.474 72.2129 281.678C71.9474 281.347 71.9997 280.863 72.3314 280.598C72.6618 280.334 73.1451 280.385 73.4119 280.717C74.0244 281.481 74.6891 282.247 75.3877 282.991C75.679 283.3 75.6638 283.787 75.3532 284.078C75.2063 284.216 75.0169 284.285 74.8282 284.285ZM106.308 283.258C106.213 283.258 106.118 283.24 106.025 283.203C105.631 283.048 105.437 282.602 105.593 282.207C105.985 281.214 106.464 280.25 107.018 279.341C107.238 278.977 107.713 278.863 108.073 279.083C108.437 279.304 108.551 279.776 108.33 280.139C107.823 280.975 107.383 281.86 107.023 282.772C106.903 283.074 106.613 283.258 106.308 283.258ZM119.207 280.65C119.05 280.65 118.893 280.602 118.756 280.504C118.413 280.255 118.335 279.774 118.584 279.431C119.215 278.558 119.74 277.713 120.144 276.921C120.336 276.539 120.804 276.394 121.177 276.584C121.555 276.776 121.706 277.239 121.513 277.617C121.075 278.481 120.507 279.395 119.83 280.331C119.68 280.539 119.444 280.65 119.207 280.65ZM70.9985 279.486C70.7496 279.486 70.5046 279.366 70.3576 279.142C69.7631 278.244 69.2228 277.332 68.7513 276.429C68.5547 276.053 68.7004 275.59 69.0771 275.393C69.4525 275.195 69.916 275.342 70.1146 275.718C70.5622 276.573 71.074 277.44 71.6401 278.295C71.8745 278.649 71.7765 279.125 71.4236 279.36C71.2925 279.445 71.1442 279.486 70.9985 279.486ZM109.49 278.032C109.31 278.032 109.128 277.969 108.983 277.841C108.665 277.561 108.634 277.076 108.912 276.756C109.627 275.944 110.411 275.2 111.244 274.547C111.573 274.283 112.059 274.341 112.323 274.676C112.584 275.01 112.527 275.494 112.192 275.755C111.434 276.351 110.72 277.03 110.068 277.771C109.915 277.944 109.703 278.032 109.49 278.032ZM121.777 275.132C121.756 275.132 121.735 275.131 121.715 275.13C121.292 275.096 120.975 274.726 121.01 274.303L121.019 274.073C121.019 273.347 120.742 272.992 120.058 272.861C119.642 272.781 119.369 272.378 119.448 271.961C119.528 271.545 119.924 271.275 120.349 271.351C121.751 271.62 122.556 272.617 122.556 274.085C122.554 274.203 122.55 274.312 122.54 274.423C122.509 274.826 122.173 275.132 121.777 275.132ZM114.302 274.265C114.023 274.265 113.752 274.111 113.617 273.844C113.425 273.465 113.576 273.002 113.956 272.811C114.933 272.316 115.948 271.929 116.973 271.66C117.387 271.552 117.803 271.799 117.911 272.21C118.019 272.62 117.773 273.041 117.361 273.148C116.441 273.388 115.529 273.737 114.649 274.181C114.538 274.238 114.42 274.265 114.302 274.265ZM68.1747 274.04C67.8641 274.04 67.5715 273.85 67.4556 273.542C67.0742 272.533 66.7663 271.509 66.5399 270.499C66.4452 270.084 66.7068 269.673 67.1206 269.58C67.5304 269.489 67.9462 269.747 68.0376 270.161C68.2508 271.103 68.5375 272.057 68.893 273C69.0433 273.397 68.8421 273.84 68.4455 273.989C68.3567 274.024 68.2647 274.04 68.1747 274.04ZM66.8491 268.062C66.4452 268.062 66.1062 267.747 66.0817 267.339C66.0579 266.951 66.046 266.569 66.046 266.191C66.0446 265.499 66.085 264.805 66.1658 264.131C66.1883 263.943 66.277 263.778 66.4062 263.659C65.4739 263.724 64.5099 263.692 63.5882 263.567C63.1678 263.51 62.8738 263.123 62.9307 262.702C62.9877 262.281 63.3823 261.985 63.7955 262.044C64.7396 262.172 65.7348 262.188 66.6823 262.095C67.104 262.068 67.4827 262.361 67.5231 262.785C67.5516 263.077 67.4119 263.346 67.1855 263.498C67.5172 263.616 67.735 263.951 67.6913 264.315C67.6178 264.927 67.5814 265.557 67.5834 266.19C67.5834 266.539 67.5953 266.89 67.6165 267.247C67.6417 267.671 67.3192 268.034 66.8961 268.06C66.8796 268.061 66.8643 268.062 66.8491 268.062ZM69.7617 262.996C69.4373 262.996 69.136 262.789 69.0308 262.463C68.9003 262.059 69.1221 261.626 69.526 261.496C70.4358 261.202 71.3375 260.81 72.2069 260.331C72.5744 260.128 73.0458 260.26 73.2504 260.633C73.4563 261.005 73.3206 261.472 72.9485 261.678C71.9937 262.204 71.0012 262.636 69.9974 262.959C69.9193 262.984 69.8399 262.996 69.7617 262.996ZM60.7233 262.812C60.6319 262.812 60.5385 262.795 60.4485 262.761C59.4686 262.385 58.5012 261.892 57.5723 261.296C57.2148 261.066 57.1115 260.59 57.3412 260.234C57.571 259.875 58.045 259.774 58.4039 260.002C59.2448 260.543 60.1168 260.988 60.998 261.326C61.3946 261.478 61.5926 261.923 61.441 262.319C61.3238 262.624 61.0325 262.812 60.7233 262.812ZM67.594 261.996C67.5125 261.996 67.4318 261.983 67.351 261.956C66.9491 261.822 66.7313 261.387 66.865 260.984C67.2133 259.94 67.6708 258.951 68.225 258.043C68.4455 257.68 68.9202 257.565 69.2804 257.786C69.6439 258.007 69.7578 258.48 69.5373 258.842C69.0433 259.652 68.6348 260.537 68.3243 261.47C68.215 261.793 67.9151 261.996 67.594 261.996ZM75.1175 260.046C74.897 260.046 74.6766 259.951 74.5243 259.767C74.2541 259.44 74.3005 258.956 74.6282 258.684C75.4161 258.033 76.1173 257.318 76.6563 256.616C76.9132 256.279 77.3978 256.218 77.7329 256.473C78.0705 256.732 78.1334 257.214 77.8752 257.551C77.2687 258.344 76.4835 259.146 75.6068 259.871C75.4645 259.989 75.2903 260.046 75.1175 260.046ZM55.5052 259.61C55.337 259.61 55.1675 259.555 55.0265 259.442C54.1843 258.772 53.3884 258.072 52.6608 257.366C52.3562 257.07 52.3483 256.584 52.6442 256.279C52.9382 255.975 53.4248 255.968 53.7307 256.262C54.4226 256.934 55.1808 257.599 55.9839 258.239C56.3156 258.504 56.3712 258.987 56.1057 259.319C55.9541 259.51 55.7303 259.61 55.5052 259.61ZM70.7853 256.81C70.5861 256.81 70.3861 256.732 70.2345 256.578C69.9385 256.274 69.9445 255.787 70.2497 255.491C71.0456 254.715 71.9328 254.059 72.8856 253.545C73.255 253.348 73.7245 253.481 73.9257 253.855C74.1283 254.229 73.9886 254.696 73.6152 254.897C72.7882 255.344 72.0162 255.914 71.3217 256.591C71.1727 256.737 70.9787 256.81 70.7853 256.81ZM51.1154 255.323C50.8929 255.323 50.6725 255.227 50.5195 255.041C49.8349 254.202 49.2165 253.33 48.6808 252.45C48.4617 252.086 48.5756 251.613 48.939 251.394C49.2979 251.174 49.772 251.287 49.9958 251.651C50.4943 252.472 51.0704 253.285 51.7113 254.069C51.9788 254.397 51.9305 254.882 51.6021 255.15C51.459 255.266 51.2869 255.323 51.1154 255.323ZM78.5029 255.09C78.0825 255.09 77.7388 254.751 77.7342 254.329C77.7329 254.134 77.7295 253.867 76.9714 253.867C76.7642 253.867 76.5285 253.891 76.2643 253.939C75.8531 254.01 75.4479 253.736 75.3724 253.318C75.2976 252.901 75.575 252.501 75.9942 252.426C78.4771 251.977 79.2603 253.19 79.2709 254.314C79.2756 254.738 78.9346 255.086 78.5102 255.09C78.5075 255.09 78.5055 255.09 78.5029 255.09ZM47.9479 250.081C47.6459 250.081 47.3593 249.902 47.2361 249.605C46.8276 248.61 46.5038 247.583 46.2721 246.554C46.1807 246.139 46.4402 245.729 46.8547 245.636C47.2738 245.543 47.6791 245.803 47.7737 246.217C47.9856 247.162 48.2829 248.106 48.6596 249.021C48.8205 249.413 48.6325 249.863 48.2392 250.023C48.1445 250.063 48.0459 250.081 47.9479 250.081ZM46.6045 244.113C46.1979 244.113 45.8583 243.795 45.8371 243.385C45.8179 243.029 45.8086 242.676 45.8086 242.323C45.8086 241.627 45.8463 240.912 45.9198 240.196C45.9635 239.772 46.3489 239.476 46.762 239.509C47.1851 239.553 47.4917 239.931 47.448 240.352C47.3804 241.016 47.346 241.679 47.346 242.323C47.346 242.649 47.3553 242.975 47.3718 243.303C47.3943 243.728 47.0686 244.089 46.6455 244.112C46.6316 244.113 46.6184 244.113 46.6045 244.113ZM47.2123 238.017C47.152 238.017 47.0904 238.01 47.0289 237.995C46.6164 237.894 46.3641 237.477 46.4661 237.066C46.7091 236.072 47.0242 235.055 47.4043 234.044C47.5546 233.645 47.9896 233.447 48.3935 233.594C48.7901 233.742 48.9927 234.185 48.8424 234.583C48.4848 235.537 48.1882 236.496 47.9585 237.432C47.8731 237.782 47.5592 238.017 47.2123 238.017ZM49.3529 232.262C49.2377 232.262 49.1218 232.237 49.0119 232.182C48.6305 231.993 48.4762 231.532 48.6636 231.152C49.1198 230.233 49.6336 229.308 50.1918 228.401C50.4169 228.038 50.8916 227.929 51.2485 228.15C51.6107 228.373 51.7232 228.846 51.5007 229.207C50.9664 230.074 50.4751 230.958 50.0415 231.835C49.9071 232.106 49.6356 232.262 49.3529 232.262ZM52.5674 227.023C52.4085 227.023 52.2476 226.974 52.1112 226.872C51.7689 226.62 51.6967 226.14 51.949 225.798C53.0872 224.258 53.9261 223.373 53.9605 223.336C54.2564 223.029 54.7411 223.018 55.0477 223.31C55.3556 223.603 55.3675 224.09 55.0748 224.396C55.0655 224.404 54.2611 225.256 53.1865 226.71C53.0342 226.914 52.8031 227.023 52.5674 227.023Z" fill="#241726"/>
<path d="M172.63 294.297C172.115 294.297 170.551 294.297 166.905 282.379C166.822 282.108 166.896 281.814 167.094 281.612C171.897 276.766 178.919 269.536 182.417 265.648C177.846 268.667 168.775 275.112 162.708 279.513C162.534 279.64 162.316 279.685 162.105 279.644C160.89 279.401 154.779 278.081 153.733 275.986C153.574 275.67 153.604 275.294 153.812 274.955C155.621 272.03 182.405 262.423 185.024 262.423C185.194 262.423 185.339 262.445 185.467 262.49C185.468 262.49 185.468 262.49 185.468 262.491C185.518 262.508 185.564 262.53 185.608 262.556C185.612 262.558 185.617 262.561 185.619 262.563C185.624 262.566 185.629 262.568 185.633 262.571C185.696 262.606 185.756 262.65 185.808 262.702C186.2 263.095 186.37 263.543 184.965 267.627C183.875 270.796 174.956 294.016 172.761 294.288L172.63 294.297ZM168.511 282.368C169.85 286.671 171.646 291.396 172.569 292.566C174.481 289.919 181.479 273.367 183.797 266.384C181.561 268.96 177.146 273.648 168.511 282.368ZM155.304 275.557C156.19 276.428 159.293 277.48 162.079 278.071C168.489 273.425 175.747 268.247 180.421 265.173C172.548 267.75 157.401 273.635 155.304 275.557Z" fill="#241726"/>
<path d="M165.126 290.649C164.821 290.649 164.596 290.54 164.451 290.436C163.651 289.864 162.683 286.102 161.579 279.257C161.51 278.838 161.796 278.443 162.214 278.376C162.639 278.306 163.029 278.594 163.095 279.012C163.757 283.102 164.739 287.837 165.287 289.028C165.903 288.651 167.222 287.169 168.324 285.59C168.569 285.24 169.05 285.158 169.395 285.399C169.743 285.642 169.828 286.121 169.585 286.47C168.767 287.643 166.716 290.396 165.36 290.63C165.276 290.644 165.2 290.649 165.126 290.649Z" fill="#241726"/>
<path d="M295.465 102.732C295.464 102.732 295.441 102.732 295.441 102.732C292.538 102.72 290.187 100.348 290.199 97.4453C290.213 94.5545 292.576 92.2034 295.464 92.2034C296.893 92.2093 298.212 92.7622 299.201 93.7606C300.192 94.7598 300.734 96.084 300.728 97.4896C300.716 100.38 298.355 102.732 295.465 102.732ZM295.48 93.7408C293.418 93.7408 291.747 95.4053 291.736 97.4526C291.727 99.5071 293.392 101.186 295.447 101.195L295.465 101.964V101.195C297.511 101.195 299.182 99.5303 299.191 97.4837C299.195 96.4879 298.811 95.5503 298.109 94.8432C297.409 94.1361 296.475 93.7448 295.48 93.7408Z" fill="#241726"/>
<path d="M118.854 43.5973C118.853 43.5973 118.83 43.5973 118.83 43.5973C115.927 43.5853 113.577 41.2137 113.588 38.311C113.6 35.4202 115.962 33.0691 118.853 33.0691C120.282 33.075 121.601 33.6285 122.592 34.627C123.582 35.6255 124.123 36.9503 124.117 38.356C124.105 41.2461 121.744 43.5973 118.854 43.5973ZM118.869 34.6058C116.806 34.6058 115.134 36.2704 115.125 38.3169C115.116 40.3721 116.781 42.0512 118.836 42.0598L118.854 42.8286V42.0598C120.9 42.0598 122.571 40.3953 122.58 38.3494C122.585 37.3536 122.2 36.416 121.499 35.7089C120.798 35.0024 119.864 34.6105 118.869 34.6058Z" fill="#241726"/>
<path d="M283.193 68.1655C282.575 68.1655 282.231 67.7225 282.21 67.2849C282.206 67.2193 282.211 67.1544 282.225 67.0902C282.231 67.0584 282.859 64.0776 283.728 60.5678C279.361 57.6022 279.448 56.5249 279.487 56.0568C279.525 55.592 279.813 55.2067 280.278 54.9968C281.197 54.5843 282.965 54.2374 285.538 53.9646C287.025 49.2047 287.912 48.2287 288.845 48.2287C289.043 48.2287 289.233 48.2804 289.408 48.3817C290.403 48.9603 291.892 51.3962 293.044 53.4971C293.921 53.4739 294.761 53.4627 295.534 53.4627C297.897 53.4627 299.379 53.5627 299.937 53.7593C300.399 53.9222 300.707 54.2711 300.781 54.7167C300.865 55.2292 301.038 56.28 296.234 60.1142C297.401 62.915 297.902 64.7808 297.726 65.6634C297.683 65.8832 297.455 66.6009 296.365 66.6009C294.928 66.6016 292.102 65.3085 290.303 64.406C288.336 65.7091 284.46 68.1655 283.193 68.1655ZM285.092 61.4603C284.597 63.4864 284.191 65.2846 283.956 66.3599C284.846 65.9593 286.437 65.0887 288.741 63.5916C287.489 62.9163 286.241 62.1866 285.092 61.4603ZM291.767 63.4149C294.087 64.5312 295.544 64.9946 296.218 65.0569C296.162 64.4888 295.853 63.2586 294.973 61.0948C293.971 61.8576 292.886 62.6415 291.767 63.4149ZM285.483 59.8865C286.935 60.8247 288.579 61.7801 290.198 62.6263C291.66 61.6351 293.082 60.6128 294.354 59.6335C293.696 58.1392 292.926 56.5488 292.139 55.063C290.25 55.1299 288.356 55.2451 286.708 55.3947C286.321 56.7017 285.91 58.208 285.483 59.8865ZM281.097 56.3223C281.342 56.7302 282.171 57.6035 284.129 58.9761C284.449 57.7386 284.758 56.5964 285.057 55.5649C282.724 55.8397 281.613 56.1303 281.097 56.3223ZM293.85 55.0167C294.467 56.2131 295.065 57.4559 295.6 58.651C298.141 56.5905 298.919 55.5715 299.156 55.1531C298.668 55.0802 297.571 55.0001 295.534 55.0001C295.001 55.0001 294.436 55.0054 293.85 55.0167ZM288.855 49.8919C288.606 50.2183 288.064 51.1579 287.201 53.809C288.487 53.7024 289.896 53.6163 291.317 53.556C290.084 51.3777 289.272 50.3044 288.855 49.8919Z" fill="#241726"/>
</g>
<defs>
<clipPath id="clip0_490_350">
<rect width="339" height="339" fill="white"/>
</clipPath>
</defs>
</svg>
