<svg width="50" height="24" viewBox="0 0 50 24" fill="none" xmlns="http://www.w3.org/2000/svg">
<rect x="0.166138" width="49" height="24" rx="12" fill="#FCD462"/>
<path d="M14.3251 16V8.322H17.9551C18.3145 8.322 18.6371 8.38433 18.9231 8.509C19.2091 8.62633 19.4511 8.79133 19.6491 9.004C19.8545 9.21667 20.0121 9.477 20.1221 9.785C20.2321 10.0857 20.2871 10.4157 20.2871 10.775C20.2871 11.1417 20.2321 11.4753 20.1221 11.776C20.0121 12.0767 19.8545 12.3333 19.6491 12.546C19.4511 12.7587 19.2091 12.9273 18.9231 13.052C18.6371 13.1693 18.3145 13.228 17.9551 13.228H15.9971V16H14.3251ZM15.9971 11.776H17.7571C18.0065 11.776 18.2008 11.7137 18.3401 11.589C18.4868 11.457 18.5601 11.2663 18.5601 11.017V10.533C18.5601 10.2837 18.4868 10.0967 18.3401 9.972C18.2008 9.84 18.0065 9.774 17.7571 9.774H15.9971V11.776ZM23.2159 16H21.5439V8.322H25.1849C25.5369 8.322 25.8559 8.38067 26.1419 8.498C26.4279 8.61533 26.6699 8.784 26.8679 9.004C27.0732 9.21667 27.2309 9.47333 27.3409 9.774C27.4509 10.0747 27.5059 10.4083 27.5059 10.775C27.5059 11.2957 27.3886 11.7503 27.1539 12.139C26.9266 12.5277 26.5782 12.81 26.1089 12.986L27.6159 16H25.7569L24.4149 13.184H23.2159V16ZM24.9759 11.776C25.2252 11.776 25.4196 11.7137 25.5589 11.589C25.7056 11.457 25.7789 11.2663 25.7789 11.017V10.533C25.7789 10.2837 25.7056 10.0967 25.5589 9.972C25.4196 9.84 25.2252 9.774 24.9759 9.774H23.2159V11.776H24.9759ZM31.9286 16.132C31.4226 16.132 30.9606 16.0477 30.5426 15.879C30.1246 15.7103 29.7689 15.461 29.4756 15.131C29.1823 14.7937 28.9549 14.3793 28.7936 13.888C28.6323 13.3893 28.5516 12.8137 28.5516 12.161C28.5516 11.5083 28.6323 10.9363 28.7936 10.445C28.9549 9.94633 29.1823 9.532 29.4756 9.202C29.7689 8.86467 30.1246 8.61167 30.5426 8.443C30.9606 8.27433 31.4226 8.19 31.9286 8.19C32.4346 8.19 32.8966 8.27433 33.3146 8.443C33.7326 8.61167 34.0883 8.86467 34.3816 9.202C34.6749 9.532 34.9023 9.94633 35.0636 10.445C35.2249 10.9363 35.3056 11.5083 35.3056 12.161C35.3056 12.8137 35.2249 13.3893 35.0636 13.888C34.9023 14.3793 34.6749 14.7937 34.3816 15.131C34.0883 15.461 33.7326 15.7103 33.3146 15.879C32.8966 16.0477 32.4346 16.132 31.9286 16.132ZM31.9286 14.647C32.4346 14.647 32.8269 14.482 33.1056 14.152C33.3916 13.822 33.5346 13.349 33.5346 12.733V11.589C33.5346 10.973 33.3916 10.5 33.1056 10.17C32.8269 9.84 32.4346 9.675 31.9286 9.675C31.4226 9.675 31.0266 9.84 30.7406 10.17C30.4619 10.5 30.3226 10.973 30.3226 11.589V12.733C30.3226 13.349 30.4619 13.822 30.7406 14.152C31.0266 14.482 31.4226 14.647 31.9286 14.647Z" fill="white"/>
</svg>