<svg width="28" height="28" viewBox="0 0 28 28" fill="none" xmlns="http://www.w3.org/2000/svg">
<path fill-rule="evenodd" clip-rule="evenodd" d="M8.16667 14.0001C8.16667 15.2887 7.122 16.3334 5.83333 16.3334C4.54467 16.3334 3.5 15.2887 3.5 14.0001C3.5 12.7114 4.54467 11.6667 5.83333 11.6667C7.122 11.6667 8.16667 12.7114 8.16667 14.0001ZM16.3333 14.0001C16.3333 15.2887 15.2886 16.3334 14 16.3334C12.7113 16.3334 11.6666 15.2887 11.6666 14.0001C11.6666 12.7114 12.7113 11.6667 14 11.6667C15.2886 11.6667 16.3333 12.7114 16.3333 14.0001ZM22.1667 16.3334C23.4554 16.3334 24.5 15.2887 24.5 14.0001C24.5 12.7114 23.4554 11.6667 22.1667 11.6667C20.878 11.6667 19.8334 12.7114 19.8334 14.0001C19.8334 15.2887 20.878 16.3334 22.1667 16.3334Z" fill="#99A8B1"/>
</svg>
