<svg width="48" height="48" viewBox="0 0 48 48" fill="none" xmlns="http://www.w3.org/2000/svg">
<rect width="48" height="48" rx="24" fill="#FCD462" fill-opacity="0.8"/>
<path d="M24 28C23.8684 28.0008 23.7379 27.9756 23.6161 27.9258C23.4943 27.876 23.3835 27.8027 23.29 27.71L19.29 23.71C19.1262 23.5187 19.0406 23.2727 19.0503 23.021C19.06 22.7693 19.1644 22.5306 19.3425 22.3525C19.5205 22.1744 19.7593 22.07 20.011 22.0603C20.2626 22.0506 20.5087 22.1362 20.7 22.3L24 25.59L27.29 22.3C27.4813 22.1362 27.7274 22.0506 27.9791 22.0603C28.2307 22.07 28.4695 22.1744 28.6476 22.3525C28.8257 22.5306 28.93 22.7693 28.9397 23.021C28.9494 23.2727 28.8638 23.5187 28.7 23.71L24.7 27.71C24.5138 27.8948 24.2624 27.9989 24 28Z" fill="white"/>
<path d="M24 28C23.7348 28 23.4804 27.8946 23.2929 27.7071C23.1054 27.5196 23 27.2652 23 27V17C23 16.7348 23.1054 16.4804 23.2929 16.2929C23.4804 16.1054 23.7348 16 24 16C24.2652 16 24.5196 16.1054 24.7071 16.2929C24.8946 16.4804 25 16.7348 25 17V27C25 27.2652 24.8946 27.5196 24.7071 27.7071C24.5196 27.8946 24.2652 28 24 28ZM31 32H17C16.7348 32 16.4804 31.8946 16.2929 31.7071C16.1054 31.5196 16 31.2652 16 31C16 30.7348 16.1054 30.4804 16.2929 30.2929C16.4804 30.1054 16.7348 30 17 30H31C31.2652 30 31.5196 30.1054 31.7071 30.2929C31.8946 30.4804 32 30.7348 32 31C32 31.2652 31.8946 31.5196 31.7071 31.7071C31.5196 31.8946 31.2652 32 31 32Z" fill="white"/>
</svg>
