<svg width="24" height="24" viewBox="0 0 24 24" fill="none" xmlns="http://www.w3.org/2000/svg">
<path d="M13.1 3.99999C13.1 3.39248 12.6075 2.89999 12 2.89999C11.3925 2.89999 10.9 3.39248 10.9 3.99999V10.9H3.99999C3.39248 10.9 2.89999 11.3925 2.89999 12C2.89999 12.6075 3.39248 13.1 3.99999 13.1H10.9V20C10.9 20.6075 11.3925 21.1 12 21.1C12.6075 21.1 13.1 20.6075 13.1 20V13.1H20C20.6075 13.1 21.1 12.6075 21.1 12C21.1 11.3925 20.6075 10.9 20 10.9H13.1V3.99999Z" fill="white" stroke="white" stroke-width="0.5" stroke-linecap="round" stroke-linejoin="round"/>
</svg>
